# MagicaVoxel @ Ephtracy

# group
o 

# material
mtllib CBINKA-2.mtl
usemtl palette

# normals
vn 0 0 -1
vn 0 0 1
vn 0 -1 0
vn 0 1 0
vn 1 0 0
vn -1 0 0

# texcoords
vt 0.126953 0.5
vt 0.248047 0.5
vt 0.958984 0.5
vt 0.986328 0.5
vt 0.994141 0.5

# verts
v 0.7 0.4 -1
v 0.7 2.9 -1
v -0.2 0.4 -1
v -0.2 2.9 -1
v -0.2 0.7 -0.5
v -0.2 1.5 -0.5
v -0.9 0.7 -0.5
v -0.9 1.5 -0.5
v -0.2 0.7 0.7
v -0.2 1.5 0.7
v -0.9 0.7 0.7
v -0.9 1.5 0.7
v 0.7 0.4 1.2
v 0.7 2.9 1.2
v -0.2 0.4 1.2
v -0.2 2.9 1.2
v 0.7 0.4 -1
v -0.2 0.4 -1
v 0.7 0.4 1.2
v -0.2 0.4 1.2
v -0.2 0.7 -0.5
v -0.9 0.7 -0.5
v -0.2 0.7 0.7
v -0.9 0.7 0.7
v -0.2 1.5 -0.5
v -0.9 1.5 -0.5
v -0.2 1.5 0.7
v -0.9 1.5 0.7
v 0.7 2.9 -1
v -0.2 2.9 -1
v 0.7 2.9 1.2
v -0.2 2.9 1.2
v 0.7 0.4 -1
v 0.7 0.4 1.2
v 0.7 2.9 -1
v 0.7 2.9 1.2
v -0.2 0.4 -1
v -0.2 0.4 1.2
v -0.2 0.7 -0.5
v -0.2 0.7 0.7
v -0.2 1.5 -0.5
v -0.2 1.5 0.7
v -0.2 1.9 -0.7
v -0.2 1.9 -0.0999999
v -0.2 1.9 0.3
v -0.2 1.9 0.9
v -0.2 2 -0.6
v -0.2 2 -0.2
v -0.2 2 0.4
v -0.2 2 0.8
v -0.2 2.2 -0.3
v -0.2 2.2 -0.2
v -0.2 2.2 0.7
v -0.2 2.2 0.8
v -0.2 2.3 -0.5
v -0.2 2.3 -0.4
v -0.2 2.3 -0.3
v -0.2 2.3 -0.2
v -0.2 2.3 0.5
v -0.2 2.3 0.6
v -0.2 2.3 0.7
v -0.2 2.3 0.8
v -0.2 2.4 -0.6
v -0.2 2.4 -0.5
v -0.2 2.4 -0.4
v -0.2 2.4 -0.2
v -0.2 2.4 0.4
v -0.2 2.4 0.5
v -0.2 2.4 0.6
v -0.2 2.4 0.8
v -0.2 2.5 -0.7
v -0.2 2.5 -0.0999999
v -0.2 2.5 0.3
v -0.2 2.5 0.9
v -0.2 2.9 -1
v -0.2 2.9 1.2
v -0.9 0.7 -0.5
v -0.9 0.7 0.7
v -0.9 0.9 -0.2
v -0.9 0.9 1.19209e-07
v -0.9 0.9 0.1
v -0.9 0.9 0.3
v -0.9 1.3 -0.2
v -0.9 1.3 1.19209e-07
v -0.9 1.3 0.1
v -0.9 1.3 0.3
v -0.9 1.5 -0.5
v -0.9 1.5 0.7

# faces
f 3/2/1 2/2/1 1/2/1
f 4/2/1 2/2/1 3/2/1
f 7/2/1 6/2/1 5/2/1
f 8/2/1 6/2/1 7/2/1
f 9/2/2 10/2/2 11/2/2
f 11/2/2 10/2/2 12/2/2
f 13/2/2 14/2/2 15/2/2
f 15/2/2 14/2/2 16/2/2
f 19/2/3 18/2/3 17/2/3
f 20/2/3 18/2/3 19/2/3
f 23/2/3 22/2/3 21/2/3
f 24/2/3 22/2/3 23/2/3
f 25/2/4 26/2/4 27/2/4
f 27/2/4 26/2/4 28/2/4
f 29/2/4 30/2/4 31/2/4
f 31/2/4 30/2/4 32/2/4
f 35/2/5 34/2/5 33/2/5
f 36/2/5 34/2/5 35/2/5
f 37/2/6 38/2/6 39/2/6
f 39/2/6 38/2/6 40/2/6
f 37/2/6 39/2/6 41/2/6
f 40/2/6 38/2/6 42/2/6
f 37/2/6 41/2/6 43/2/6
f 41/2/6 42/2/6 43/2/6
f 43/2/6 42/2/6 44/2/6
f 44/2/6 42/2/6 45/2/6
f 42/2/6 38/2/6 46/2/6
f 45/2/6 42/2/6 46/2/6
f 43/3/6 44/3/6 47/3/6
f 47/3/6 44/3/6 48/3/6
f 45/3/6 46/3/6 49/3/6
f 49/3/6 46/3/6 50/3/6
f 47/5/6 48/5/6 51/5/6
f 48/3/6 44/3/6 52/3/6
f 51/5/6 48/5/6 52/5/6
f 49/5/6 50/5/6 53/5/6
f 50/3/6 46/3/6 54/3/6
f 53/5/6 50/5/6 54/5/6
f 47/5/6 51/5/6 55/5/6
f 55/5/6 51/5/6 56/5/6
f 51/3/6 52/3/6 57/3/6
f 56/5/6 51/5/6 57/5/6
f 52/3/6 44/3/6 58/3/6
f 57/3/6 52/3/6 58/3/6
f 49/5/6 53/5/6 59/5/6
f 59/5/6 53/5/6 60/5/6
f 53/3/6 54/3/6 61/3/6
f 60/5/6 53/5/6 61/5/6
f 54/3/6 46/3/6 62/3/6
f 61/3/6 54/3/6 62/3/6
f 43/3/6 47/3/6 63/3/6
f 47/5/6 55/5/6 63/5/6
f 55/3/6 56/3/6 64/3/6
f 63/5/6 55/5/6 64/5/6
f 56/5/6 57/5/6 65/5/6
f 64/3/6 56/3/6 65/3/6
f 57/5/6 58/5/6 65/5/6
f 58/3/6 44/3/6 66/3/6
f 65/5/6 58/5/6 66/5/6
f 45/3/6 49/3/6 67/3/6
f 49/5/6 59/5/6 67/5/6
f 59/3/6 60/3/6 68/3/6
f 67/5/6 59/5/6 68/5/6
f 60/5/6 61/5/6 69/5/6
f 68/3/6 60/3/6 69/3/6
f 61/5/6 62/5/6 69/5/6
f 62/3/6 46/3/6 70/3/6
f 69/5/6 62/5/6 70/5/6
f 37/2/6 43/2/6 71/2/6
f 64/3/6 65/3/6 71/3/6
f 63/3/6 64/3/6 71/3/6
f 65/3/6 66/3/6 71/3/6
f 43/3/6 63/3/6 71/3/6
f 44/2/6 45/2/6 72/2/6
f 71/3/6 66/3/6 72/3/6
f 66/3/6 44/3/6 72/3/6
f 67/3/6 68/3/6 73/3/6
f 72/2/6 45/2/6 73/2/6
f 68/3/6 69/3/6 73/3/6
f 45/3/6 67/3/6 73/3/6
f 69/3/6 70/3/6 73/3/6
f 70/3/6 46/3/6 74/3/6
f 73/3/6 70/3/6 74/3/6
f 46/2/6 38/2/6 74/2/6
f 37/2/6 71/2/6 75/2/6
f 72/2/6 73/2/6 75/2/6
f 73/2/6 74/2/6 75/2/6
f 71/2/6 72/2/6 75/2/6
f 74/2/6 38/2/6 76/2/6
f 75/2/6 74/2/6 76/2/6
f 77/2/6 78/2/6 79/2/6
f 79/2/6 78/2/6 80/2/6
f 80/2/6 78/2/6 81/2/6
f 81/2/6 78/2/6 82/2/6
f 77/2/6 79/2/6 83/2/6
f 79/4/6 80/4/6 83/4/6
f 80/2/6 81/2/6 84/2/6
f 83/4/6 80/4/6 84/4/6
f 81/4/6 82/4/6 85/4/6
f 84/2/6 81/2/6 85/2/6
f 82/2/6 78/2/6 86/2/6
f 85/4/6 82/4/6 86/4/6
f 84/2/6 85/2/6 87/2/6
f 83/2/6 84/2/6 87/2/6
f 85/2/6 86/2/6 87/2/6
f 77/2/6 83/2/6 87/2/6
f 86/2/6 78/2/6 88/2/6
f 87/2/6 86/2/6 88/2/6
