# MagicaVoxel @ Ephtracy

# group
o 

# material
mtllib CBINKA-0.mtl
usemtl palette

# normals
vn -1 0 0
vn 1 0 0
vn 0 0 1
vn 0 0 -1
vn 0 -1 0
vn 0 1 0

# texcoords
vt 0.248047 0.5
vt 0.958984 0.5
vt 0.962891 0.5

# verts
v -0.3 0 0.7
v -0.3 0 0.5
v -0.3 0 0.3
v -0.3 0 0.1
v -0.3 0.2 0.7
v -0.3 0.2 0.5
v -0.3 0.2 0.3
v -0.3 0.2 0.1
v -0.2 0 0.5
v -0.2 0 0.3
v -0.2 0.2 0.7
v -0.2 0.2 0.5
v -0.2 0.2 0.3
v -0.2 0.2 0.1
v -0.2 1 0.7
v -0.2 1 0.1
v 0.3 0 0.7
v 0.3 0 0.1
v 0.3 1 0.7
v 0.3 1 0.1
v -0.3 0 0.7
v -0.3 0.2 0.7
v -0.2 0.2 0.7
v -0.2 1 0.7
v -0.1 0 0.7
v -0.1 0.2 0.7
v 0.3 0 0.7
v 0.3 1 0.7
v -0.3 0 0.3
v -0.3 0.2 0.3
v -0.2 0 0.3
v -0.2 0.2 0.3
v -0.3 0 0.5
v -0.3 0.2 0.5
v -0.2 0 0.5
v -0.2 0.2 0.5
v -0.3 0 0.1
v -0.3 0.2 0.1
v -0.2 0.2 0.1
v -0.2 1 0.1
v -0.1 0 0.1
v -0.1 0.2 0.1
v 0.3 0 0.1
v 0.3 1 0.1
v -0.3 0 0.7
v -0.1 0 0.7
v 0.3 0 0.7
v -0.2 0 0.6
v -0.1 0 0.6
v -0.3 0 0.5
v -0.2 0 0.5
v -0.3 0 0.3
v -0.2 0 0.3
v -0.2 0 0.2
v -0.1 0 0.2
v -0.3 0 0.1
v -0.1 0 0.1
v 0.3 0 0.1
v -0.3 0.2 0.7
v -0.2 0.2 0.7
v -0.3 0.2 0.5
v -0.2 0.2 0.5
v -0.3 0.2 0.3
v -0.2 0.2 0.3
v -0.3 0.2 0.1
v -0.2 0.2 0.1
v -0.2 1 0.7
v 0.3 1 0.7
v -0.2 1 0.1
v 0.3 1 0.1

# faces
f 5/3/1 2/3/1 1/3/1
f 6/3/1 2/3/1 5/3/1
f 7/2/1 4/2/1 3/2/1
f 8/2/1 4/2/1 7/2/1
f 12/1/1 10/1/1 9/1/1
f 13/1/1 10/1/1 12/1/1
f 15/1/1 12/1/1 11/1/1
f 15/1/1 14/1/1 13/1/1
f 15/1/1 13/1/1 12/1/1
f 16/1/1 14/1/1 15/1/1
f 17/1/2 18/1/2 19/1/2
f 19/1/2 18/1/2 20/1/2
f 23/3/3 22/3/3 21/3/3
f 25/3/3 23/3/3 21/3/3
f 26/1/3 24/1/3 23/1/3
f 26/3/3 23/3/3 25/3/3
f 27/1/3 26/1/3 25/1/3
f 28/1/3 24/1/3 26/1/3
f 28/1/3 26/1/3 27/1/3
f 31/2/3 30/2/3 29/2/3
f 32/2/3 30/2/3 31/2/3
f 33/3/4 34/3/4 35/3/4
f 35/3/4 34/3/4 36/3/4
f 37/2/4 38/2/4 39/2/4
f 37/2/4 39/2/4 41/2/4
f 39/1/4 40/1/4 42/1/4
f 41/2/4 39/2/4 42/2/4
f 41/1/4 42/1/4 43/1/4
f 42/1/4 40/1/4 44/1/4
f 43/1/4 42/1/4 44/1/4
f 48/3/5 46/3/5 45/3/5
f 49/1/5 47/1/5 46/1/5
f 49/3/5 46/3/5 48/3/5
f 50/3/5 48/3/5 45/3/5
f 51/1/5 49/1/5 48/1/5
f 51/3/5 48/3/5 50/3/5
f 53/1/5 49/1/5 51/1/5
f 54/1/5 49/1/5 53/1/5
f 54/2/5 53/2/5 52/2/5
f 55/1/5 47/1/5 49/1/5
f 55/1/5 49/1/5 54/1/5
f 56/2/5 54/2/5 52/2/5
f 56/2/5 55/2/5 54/2/5
f 57/1/5 47/1/5 55/1/5
f 57/2/5 55/2/5 56/2/5
f 58/1/5 47/1/5 57/1/5
f 59/3/6 60/3/6 61/3/6
f 61/3/6 60/3/6 62/3/6
f 63/2/6 64/2/6 65/2/6
f 65/2/6 64/2/6 66/2/6
f 67/1/6 68/1/6 69/1/6
f 69/1/6 68/1/6 70/1/6
