# MagicaVoxel @ Ephtracy

# group
o 

# material
mtllib Lagushka-1.mtl
usemtl palette

# normals
vn -1 0 0
vn 1 0 0
vn 0 0 1
vn 0 0 -1
vn 0 -1 0
vn 0 1 0

# texcoords
vt 0.373047 0.5
vt 0.896484 0.5
vt 0.900391 0.5
vt 0.904297 0.5
vt 0.958984 0.5
vt 0.962891 0.5
vt 0.970703 0.5
vt 0.994141 0.5

# verts
v -0.4 0 1.4
v -0.4 0 0.7
v -0.4 0 0.6
v -0.4 0 0.4
v -0.4 0 0.3
v -0.4 0 -0.3
v -0.4 0 -0.4
v -0.4 0 -0.6
v -0.4 0 -0.7
v -0.4 0 -1.3
v -0.4 0.6 1.4
v -0.4 0.6 0.7
v -0.4 0.6 0.6
v -0.4 0.6 0.4
v -0.4 0.6 0.3
v -0.4 0.6 -0.3
v -0.4 0.6 -0.4
v -0.4 0.6 -0.6
v -0.4 0.6 -0.7
v -0.4 0.6 -1.3
v -0.2 0.6 1.1
v -0.2 0.6 -1
v -0.2 0.9 0.4
v -0.2 0.9 0.3
v -0.2 0.9 -0.2
v -0.2 0.9 -0.3
v -0.2 1 0.4
v -0.2 1 0.3
v -0.2 1 -0.2
v -0.2 1 -0.3
v -0.2 1.2 1.1
v -0.2 1.2 -1
v -0.1 1.2 1.1
v -0.1 1.2 0.8
v -0.1 1.2 -0.7
v -0.1 1.2 -1
v -0.1 1.3 1.1
v -0.1 1.3 0.8
v -0.1 1.3 -0.7
v -0.1 1.3 -1
v 0 1 1.3
v 0 1 1.1
v 0 1 -1
v 0 1 -1.2
v 0 1.1 1.2
v 0 1.1 1.1
v 0 1.1 -1
v 0 1.1 -1.1
v 0 1.2 1.1
v 0 1.2 0.8
v 0 1.2 0.7
v 0 1.2 0.6
v 0 1.2 -0.5
v 0 1.2 -0.6
v 0 1.2 -0.7
v 0 1.2 -1
v 0 1.3 1.1
v 0 1.3 0.8
v 0 1.3 -0.7
v 0 1.3 -1
v 0 1.4 1.2
v 0 1.4 0.7
v 0 1.4 -0.6
v 0 1.4 -1.1
v 0 1.5 1.3
v 0 1.5 0.6
v 0 1.5 -0.5
v 0 1.5 -1.2
v 0.5 1 1.3
v 0.5 1 1.1
v 0.5 1 -1
v 0.5 1 -1.2
v 0.5 1.2 1.1
v 0.5 1.2 0.6
v 0.5 1.2 -0.5
v 0.5 1.2 -1
v 0.5 1.5 1.3
v 0.5 1.5 0.6
v 0.5 1.5 -0.5
v 0.5 1.5 -1.2
v 0.7 0.6 1.1
v 0.7 0.6 -1
v 0.7 1.2 1.1
v 0.7 1.2 -1
v 0.9 0 1.4
v 0.9 0 -1.3
v 0.9 0.6 1.4
v 0.9 0.6 -1.3
v -0.4 0 1.4
v -0.4 0.6 1.4
v 0.9 0 1.4
v 0.9 0.6 1.4
v 0 1 1.3
v 0 1.5 1.3
v 0.2 1.2 1.3
v 0.2 1.5 1.3
v 0.3 1.2 1.3
v 0.3 1.5 1.3
v 0.5 1 1.3
v 0.5 1.5 1.3
v -0.2 0.6 1.1
v -0.2 1.2 1.1
v -0.1 1.2 1.1
v -0.1 1.3 1.1
v 0 1 1.1
v 0 1.1 1.1
v 0 1.2 1.1
v 0 1.3 1.1
v 0.5 1 1.1
v 0.5 1.2 1.1
v 0.7 0.6 1.1
v 0.7 1.2 1.1
v 0 1.2 -0.5
v 0 1.5 -0.5
v 0.5 1.2 -0.5
v 0.5 1.5 -0.5
v -0.1 1.2 -0.7
v -0.1 1.3 -0.7
v 0 1.2 -0.7
v 0 1.3 -0.7
v -0.1 1.2 0.8
v -0.1 1.3 0.8
v 0 1.2 0.8
v 0 1.3 0.8
v 0 1.2 0.6
v 0 1.5 0.6
v 0.2 1.4 0.6
v 0.2 1.5 0.6
v 0.3 1.4 0.6
v 0.3 1.5 0.6
v 0.5 1.2 0.6
v 0.5 1.5 0.6
v -0.2 0.6 -1
v -0.2 1.2 -1
v -0.1 1.2 -1
v -0.1 1.3 -1
v 0 1 -1
v 0 1.1 -1
v 0 1.2 -1
v 0 1.3 -1
v 0.5 1 -1
v 0.5 1.2 -1
v 0.7 0.6 -1
v 0.7 1.2 -1
v 0 1 -1.2
v 0 1.5 -1.2
v 0.5 1 -1.2
v 0.5 1.5 -1.2
v -0.4 0 -1.3
v -0.4 0.6 -1.3
v 0.9 0 -1.3
v 0.9 0.6 -1.3
v -0.4 0 1.4
v 0.9 0 1.4
v -0.4 0 0.7
v -0.3 0 0.7
v -0.4 0 0.6
v -0.3 0 0.6
v -0.4 0 0.4
v -0.3 0 0.4
v -0.4 0 0.3
v -0.3 0 0.3
v -0.4 0 -0.3
v -0.3 0 -0.3
v -0.4 0 -0.4
v -0.3 0 -0.4
v -0.4 0 -0.6
v -0.3 0 -0.6
v -0.4 0 -0.7
v -0.3 0 -0.7
v -0.4 0 -1.3
v 0.9 0 -1.3
v 0 1 1.3
v 0.5 1 1.3
v 0 1 1.1
v 0.5 1 1.1
v 0 1 -1
v 0.5 1 -1
v 0 1 -1.2
v 0.5 1 -1.2
v -0.4 0.6 1.4
v 0.9 0.6 1.4
v -0.2 0.6 1.1
v 0.7 0.6 1.1
v -0.4 0.6 0.7
v -0.3 0.6 0.7
v -0.4 0.6 0.6
v -0.3 0.6 0.6
v -0.4 0.6 0.4
v -0.3 0.6 0.4
v -0.4 0.6 0.3
v -0.3 0.6 0.3
v -0.4 0.6 -0.3
v -0.3 0.6 -0.3
v -0.4 0.6 -0.4
v -0.3 0.6 -0.4
v -0.4 0.6 -0.6
v -0.3 0.6 -0.6
v -0.4 0.6 -0.7
v -0.3 0.6 -0.7
v -0.2 0.6 -1
v 0.7 0.6 -1
v -0.4 0.6 -1.3
v 0.9 0.6 -1.3
v -0.2 1.2 1.1
v -0.1 1.2 1.1
v 0.5 1.2 1.1
v 0.7 1.2 1.1
v -0.1 1.2 0.8
v 0 1.2 0.8
v 0 1.2 0.7
v 0 1.2 0.6
v 0.5 1.2 0.6
v 0 1.2 -0.5
v 0.5 1.2 -0.5
v 0 1.2 -0.6
v -0.1 1.2 -0.7
v 0 1.2 -0.7
v -0.2 1.2 -1
v -0.1 1.2 -1
v 0.5 1.2 -1
v 0.7 1.2 -1
v -0.1 1.3 1.1
v 0 1.3 1.1
v -0.1 1.3 0.8
v 0 1.3 0.8
v -0.1 1.3 -0.7
v 0 1.3 -0.7
v -0.1 1.3 -1
v 0 1.3 -1
v 0 1.5 1.3
v 0.2 1.5 1.3
v 0.3 1.5 1.3
v 0.5 1.5 1.3
v 0 1.5 0.6
v 0.2 1.5 0.6
v 0.3 1.5 0.6
v 0.5 1.5 0.6
v 0 1.5 -0.5
v 0.5 1.5 -0.5
v 0 1.5 -1.2
v 0.5 1.5 -1.2

# faces
f 11/7/1 2/7/1 1/7/1
f 12/1/1 3/1/1 2/1/1
f 12/7/1 2/7/1 11/7/1
f 13/7/1 4/7/1 3/7/1
f 13/1/1 3/1/1 12/1/1
f 14/1/1 5/1/1 4/1/1
f 14/7/1 4/7/1 13/7/1
f 15/7/1 6/7/1 5/7/1
f 15/1/1 5/1/1 14/1/1
f 16/1/1 7/1/1 6/1/1
f 16/7/1 6/7/1 15/7/1
f 17/7/1 8/7/1 7/7/1
f 17/1/1 7/1/1 16/1/1
f 18/1/1 9/1/1 8/1/1
f 18/7/1 8/7/1 17/7/1
f 19/7/1 10/7/1 9/7/1
f 19/1/1 9/1/1 18/1/1
f 20/7/1 10/7/1 19/7/1
f 23/2/1 22/2/1 21/2/1
f 24/2/1 22/2/1 23/2/1
f 25/2/1 22/2/1 24/2/1
f 26/2/1 22/2/1 25/2/1
f 27/2/1 23/2/1 21/2/1
f 27/4/1 24/4/1 23/4/1
f 28/2/1 25/2/1 24/2/1
f 28/4/1 24/4/1 27/4/1
f 29/4/1 26/4/1 25/4/1
f 29/2/1 25/2/1 28/2/1
f 30/2/1 22/2/1 26/2/1
f 30/4/1 26/4/1 29/4/1
f 31/2/1 29/2/1 28/2/1
f 31/2/1 28/2/1 27/2/1
f 31/2/1 30/2/1 29/2/1
f 31/2/1 27/2/1 21/2/1
f 32/2/1 22/2/1 30/2/1
f 32/2/1 30/2/1 31/2/1
f 37/8/1 34/8/1 33/8/1
f 38/8/1 34/8/1 37/8/1
f 39/8/1 36/8/1 35/8/1
f 40/8/1 36/8/1 39/8/1
f 45/2/1 42/2/1 41/2/1
f 46/2/1 42/2/1 45/2/1
f 47/2/1 44/2/1 43/2/1
f 48/2/1 44/2/1 47/2/1
f 49/6/1 46/6/1 45/6/1
f 56/5/1 48/5/1 47/5/1
f 57/6/1 49/6/1 45/6/1
f 58/6/1 51/6/1 50/6/1
f 59/5/1 55/5/1 54/5/1
f 60/5/1 48/5/1 56/5/1
f 61/2/1 45/2/1 41/2/1
f 61/6/1 58/6/1 57/6/1
f 61/6/1 57/6/1 45/6/1
f 62/2/1 52/2/1 51/2/1
f 62/6/1 58/6/1 61/6/1
f 62/6/1 51/6/1 58/6/1
f 63/5/1 60/5/1 59/5/1
f 63/5/1 59/5/1 54/5/1
f 63/2/1 54/2/1 53/2/1
f 64/2/1 44/2/1 48/2/1
f 64/5/1 60/5/1 63/5/1
f 64/5/1 48/5/1 60/5/1
f 65/2/1 62/2/1 61/2/1
f 65/2/1 61/2/1 41/2/1
f 66/2/1 52/2/1 62/2/1
f 66/2/1 62/2/1 65/2/1
f 67/2/1 63/2/1 53/2/1
f 67/2/1 64/2/1 63/2/1
f 68/2/1 44/2/1 64/2/1
f 68/2/1 64/2/1 67/2/1
f 69/2/2 70/2/2 73/2/2
f 71/2/2 72/2/2 76/2/2
f 73/2/2 74/2/2 77/2/2
f 69/2/2 73/2/2 77/2/2
f 77/2/2 74/2/2 78/2/2
f 75/2/2 76/2/2 79/2/2
f 76/2/2 72/2/2 80/2/2
f 79/2/2 76/2/2 80/2/2
f 81/2/2 82/2/2 83/2/2
f 83/2/2 82/2/2 84/2/2
f 85/7/2 86/7/2 87/7/2
f 87/7/2 86/7/2 88/7/2
f 91/7/3 90/7/3 89/7/3
f 92/7/3 90/7/3 91/7/3
f 95/2/3 94/2/3 93/2/3
f 96/2/3 94/2/3 95/2/3
f 97/2/3 95/2/3 93/2/3
f 97/3/3 96/3/3 95/3/3
f 98/3/3 96/3/3 97/3/3
f 99/2/3 97/2/3 93/2/3
f 99/2/3 98/2/3 97/2/3
f 100/2/3 98/2/3 99/2/3
f 103/2/3 102/2/3 101/2/3
f 105/2/3 103/2/3 101/2/3
f 106/2/3 103/2/3 105/2/3
f 107/8/3 104/8/3 103/8/3
f 107/2/3 103/2/3 106/2/3
f 108/8/3 104/8/3 107/8/3
f 109/2/3 105/2/3 101/2/3
f 111/2/3 109/2/3 101/2/3
f 111/2/3 110/2/3 109/2/3
f 112/2/3 110/2/3 111/2/3
f 115/2/3 114/2/3 113/2/3
f 116/2/3 114/2/3 115/2/3
f 119/8/3 118/8/3 117/8/3
f 120/8/3 118/8/3 119/8/3
f 121/8/4 122/8/4 123/8/4
f 123/8/4 122/8/4 124/8/4
f 125/2/4 126/2/4 127/2/4
f 127/2/4 126/2/4 128/2/4
f 125/2/4 127/2/4 129/2/4
f 127/3/4 128/3/4 129/3/4
f 129/3/4 128/3/4 130/3/4
f 125/2/4 129/2/4 131/2/4
f 129/2/4 130/2/4 131/2/4
f 131/2/4 130/2/4 132/2/4
f 133/2/4 134/2/4 135/2/4
f 133/2/4 135/2/4 137/2/4
f 137/2/4 135/2/4 138/2/4
f 135/8/4 136/8/4 139/8/4
f 138/2/4 135/2/4 139/2/4
f 139/8/4 136/8/4 140/8/4
f 133/2/4 137/2/4 141/2/4
f 133/2/4 141/2/4 143/2/4
f 141/2/4 142/2/4 143/2/4
f 143/2/4 142/2/4 144/2/4
f 145/2/4 146/2/4 147/2/4
f 147/2/4 146/2/4 148/2/4
f 149/7/4 150/7/4 151/7/4
f 151/7/4 150/7/4 152/7/4
f 155/7/5 154/7/5 153/7/5
f 156/7/5 154/7/5 155/7/5
f 157/1/5 156/1/5 155/1/5
f 158/7/5 154/7/5 156/7/5
f 158/1/5 156/1/5 157/1/5
f 159/7/5 158/7/5 157/7/5
f 160/7/5 154/7/5 158/7/5
f 160/7/5 158/7/5 159/7/5
f 161/1/5 160/1/5 159/1/5
f 162/7/5 154/7/5 160/7/5
f 162/1/5 160/1/5 161/1/5
f 163/7/5 162/7/5 161/7/5
f 164/7/5 154/7/5 162/7/5
f 164/7/5 162/7/5 163/7/5
f 165/1/5 164/1/5 163/1/5
f 166/7/5 154/7/5 164/7/5
f 166/1/5 164/1/5 165/1/5
f 167/7/5 166/7/5 165/7/5
f 168/7/5 154/7/5 166/7/5
f 168/7/5 166/7/5 167/7/5
f 169/1/5 168/1/5 167/1/5
f 170/7/5 154/7/5 168/7/5
f 170/1/5 168/1/5 169/1/5
f 171/7/5 170/7/5 169/7/5
f 172/7/5 154/7/5 170/7/5
f 172/7/5 170/7/5 171/7/5
f 175/2/5 174/2/5 173/2/5
f 176/2/5 174/2/5 175/2/5
f 179/2/5 178/2/5 177/2/5
f 180/2/5 178/2/5 179/2/5
f 181/7/6 182/7/6 183/7/6
f 183/7/6 182/7/6 184/7/6
f 181/7/6 183/7/6 185/7/6
f 185/7/6 183/7/6 186/7/6
f 185/1/6 186/1/6 187/1/6
f 186/7/6 183/7/6 188/7/6
f 187/1/6 186/1/6 188/1/6
f 187/7/6 188/7/6 189/7/6
f 188/7/6 183/7/6 190/7/6
f 189/7/6 188/7/6 190/7/6
f 189/1/6 190/1/6 191/1/6
f 190/7/6 183/7/6 192/7/6
f 191/1/6 190/1/6 192/1/6
f 191/7/6 192/7/6 193/7/6
f 192/7/6 183/7/6 194/7/6
f 193/7/6 192/7/6 194/7/6
f 193/1/6 194/1/6 195/1/6
f 194/7/6 183/7/6 196/7/6
f 195/1/6 194/1/6 196/1/6
f 195/7/6 196/7/6 197/7/6
f 196/7/6 183/7/6 198/7/6
f 197/7/6 196/7/6 198/7/6
f 197/1/6 198/1/6 199/1/6
f 198/7/6 183/7/6 200/7/6
f 199/1/6 198/1/6 200/1/6
f 199/7/6 200/7/6 201/7/6
f 200/7/6 183/7/6 201/7/6
f 184/7/6 182/7/6 202/7/6
f 199/7/6 201/7/6 203/7/6
f 201/7/6 202/7/6 203/7/6
f 202/7/6 182/7/6 204/7/6
f 203/7/6 202/7/6 204/7/6
f 205/2/6 206/2/6 209/2/6
f 209/2/6 210/2/6 211/2/6
f 209/2/6 211/2/6 212/2/6
f 207/2/6 208/2/6 213/2/6
f 209/2/6 212/2/6 214/2/6
f 212/2/6 213/2/6 214/2/6
f 213/2/6 208/2/6 215/2/6
f 214/2/6 213/2/6 215/2/6
f 209/2/6 214/2/6 216/2/6
f 205/2/6 209/2/6 217/2/6
f 209/2/6 216/2/6 217/2/6
f 217/2/6 216/2/6 218/2/6
f 205/2/6 217/2/6 219/2/6
f 219/2/6 217/2/6 220/2/6
f 215/2/6 208/2/6 221/2/6
f 221/2/6 208/2/6 222/2/6
f 223/8/6 224/8/6 225/8/6
f 225/8/6 224/8/6 226/8/6
f 227/8/6 228/8/6 229/8/6
f 229/8/6 228/8/6 230/8/6
f 231/2/6 232/2/6 235/2/6
f 232/3/6 233/3/6 236/3/6
f 235/2/6 232/2/6 236/2/6
f 233/2/6 234/2/6 237/2/6
f 236/3/6 233/3/6 237/3/6
f 237/2/6 234/2/6 238/2/6
f 239/2/6 240/2/6 241/2/6
f 241/2/6 240/2/6 242/2/6
