# This file is brought to you by Roblox Corporation
# Generated by Roblox Studio

mtllib road.mtl

g Ddd1

v 233.608 3.55945 -32.4909 
v 233.608 3.55945 -9.95439 
v 233.608 2.19725 -32.4909 
v 233.608 2.19725 -9.95439 
v -201.303 3.55945 -9.95439 
v 233.608 3.55945 -9.95439 
v -201.303 3.55945 -32.4909 
v 233.608 3.55945 -32.4909 
v 233.608 3.55945 -9.95439 
v -201.303 3.55945 -9.95439 
v 233.608 2.19725 -9.95439 
v -201.303 2.19725 -9.95439 
v -201.303 3.55945 -9.95439 
v -201.303 3.55945 -32.4909 
v -201.303 2.19725 -9.95439 
v -201.303 2.19725 -32.4909 
v -201.303 2.19725 -32.4909 
v 233.608 2.19725 -32.4909 
v -201.303 2.19725 -9.95439 
v 233.608 2.19725 -9.95439 
v -201.303 3.55945 -32.4909 
v 233.608 3.55945 -32.4909 
v -201.303 2.19725 -32.4909 
v 233.608 2.19725 -32.4909 

vn 1 0 0 
vn 1 0 0 
vn 1 0 0 
vn 1 0 0 
vn 0 1 0 
vn 0 1 0 
vn 0 1 0 
vn 0 1 0 
vn 0 0 1 
vn 0 0 1 
vn 0 0 1 
vn 0 0 1 
vn -1 0 0 
vn -1 0 0 
vn -1 0 0 
vn -1 0 0 
vn 0 -1 0 
vn 0 -1 0 
vn 0 -1 0 
vn 0 -1 0 
vn 0 0 -1 
vn 0 0 -1 
vn 0 0 -1 
vn 0 0 -1 

vt 10.0671 -4.5 
vt 7.25 -4.5 
vt 10.0671 -4.67027 
vt 7.25 -4.67027 
vt 61.6139 -4.5 
vt 7.25 -4.5 
vt 61.6139 -7.31706 
vt 7.25 -7.31706 
vt 61.6139 -4.5 
vt 7.25 -4.5 
vt 61.6139 -4.67027 
vt 7.25 -4.67027 
vt 10.0671 -4.5 
vt 7.25 -4.5 
vt 10.0671 -4.67027 
vt 7.25 -4.67027 
vt 61.6139 -4.5 
vt 7.25 -4.5 
vt 61.6139 -7.31706 
vt 7.25 -7.31706 
vt 61.6139 -4.5 
vt 7.25 -4.5 
vt 61.6139 -4.67027 
vt 7.25 -4.67027 

usemtl Ddd1Mtl

f 1/1/1 2/2/2 3/3/3 
f 3/3/3 2/2/2 4/4/4 
f 5/5/5 6/6/6 7/7/7 
f 7/7/7 6/6/6 8/8/8 
f 9/9/9 10/10/10 11/11/11 
f 11/11/11 10/10/10 12/12/12 
f 13/13/13 14/14/14 15/15/15 
f 15/15/15 14/14/14 16/16/16 
f 17/17/17 18/18/18 19/19/19 
f 19/19/19 18/18/18 20/20/20 
f 21/21/21 22/22/22 23/23/23 
f 23/23/23 22/22/22 24/24/24 

