# This file is brought to you by Roblox Corporation
# Generated by Roblox Studio

mtllib Stena.mtl

g Part1

v 226.281 37.3102 -153.301 
v 226.281 37.3102 -139.918 
v 226.281 33.8962 -153.301 
v 226.281 33.8962 -139.918 
v -197.608 37.3102 -139.918 
v 226.281 37.3102 -139.918 
v -197.608 37.3102 -153.301 
v 226.281 37.3102 -153.301 
v 226.281 37.3102 -139.918 
v -197.608 37.3102 -139.918 
v 226.281 33.8962 -139.918 
v -197.608 33.8962 -139.918 
v -197.608 37.3102 -139.918 
v -197.608 37.3102 -153.301 
v -197.608 33.8962 -139.918 
v -197.608 33.8962 -153.301 
v -197.608 33.8962 -153.301 
v 226.281 33.8962 -153.301 
v -197.608 33.8962 -139.918 
v 226.281 33.8962 -139.918 
v -197.608 37.3102 -153.301 
v 226.281 37.3102 -153.301 
v -197.608 33.8962 -153.301 
v 226.281 33.8962 -153.301 

vn 1 0 0 
vn 1 0 0 
vn 1 0 0 
vn 1 0 0 
vn 0 1 0 
vn 0 1 0 
vn 0 1 0 
vn 0 1 0 
vn 0 0 1 
vn 0 0 1 
vn 0 0 1 
vn 0 0 1 
vn -1 0 0 
vn -1 0 0 
vn -1 0 0 
vn -1 0 0 
vn 0 -1 0 
vn 0 -1 0 
vn 0 -1 0 
vn 0 -1 0 
vn 0 0 -1 
vn 0 0 -1 
vn 0 0 -1 
vn 0 0 -1 

vt 8.92288 -6.75 
vt 7.25 -6.75 
vt 8.92288 -7.17675 
vt 7.25 -7.17675 
vt 60.2362 -6.75 
vt 7.25 -6.75 
vt 60.2362 -8.42288 
vt 7.25 -8.42288 
vt 60.2362 -6.75 
vt 7.25 -6.75 
vt 60.2362 -7.17675 
vt 7.25 -7.17675 
vt 8.92288 -6.75 
vt 7.25 -6.75 
vt 8.92288 -7.17675 
vt 7.25 -7.17675 
vt 60.2362 -6.75 
vt 7.25 -6.75 
vt 60.2362 -8.42288 
vt 7.25 -8.42288 
vt 60.2362 -6.75 
vt 7.25 -6.75 
vt 60.2362 -7.17675 
vt 7.25 -7.17675 

usemtl Part1Mtl

f 1/1/1 2/2/2 3/3/3 
f 3/3/3 2/2/2 4/4/4 
f 5/5/5 6/6/6 7/7/7 
f 7/7/7 6/6/6 8/8/8 
f 9/9/9 10/10/10 11/11/11 
f 11/11/11 10/10/10 12/12/12 
f 13/13/13 14/14/14 15/15/15 
f 15/15/15 14/14/14 16/16/16 
f 17/17/17 18/18/18 19/19/19 
f 19/19/19 18/18/18 20/20/20 
f 21/21/21 22/22/22 23/23/23 
f 23/23/23 22/22/22 24/24/24 

g Part2

v 233.608 33.8968 -151.609 
v 233.608 33.8968 -141.609 
v 233.608 8.56355 -151.609 
v 233.608 8.56355 -141.609 
v -197.608 33.8968 -141.609 
v 233.608 33.8968 -141.609 
v -197.608 33.8968 -151.609 
v 233.608 33.8968 -151.609 
v 233.608 33.8968 -141.609 
v -197.608 33.8968 -141.609 
v 233.608 8.56355 -141.609 
v -197.608 8.56355 -141.609 
v -197.608 33.8968 -141.609 
v -197.608 33.8968 -151.609 
v -197.608 8.56355 -141.609 
v -197.608 8.56355 -151.609 
v -197.608 8.56355 -151.609 
v 233.608 8.56355 -151.609 
v -197.608 8.56355 -141.609 
v 233.608 8.56355 -141.609 
v -197.608 33.8968 -151.609 
v 233.608 33.8968 -151.609 
v -197.608 8.56355 -151.609 
v 233.608 8.56355 -151.609 

vn 1 0 0 
vn 1 0 0 
vn 1 0 0 
vn 1 0 0 
vn 0 1 0 
vn 0 1 0 
vn 0 1 0 
vn 0 1 0 
vn 0 0 1 
vn 0 0 1 
vn 0 0 1 
vn 0 0 1 
vn -1 0 0 
vn -1 0 0 
vn -1 0 0 
vn -1 0 0 
vn 0 -1 0 
vn 0 -1 0 
vn 0 -1 0 
vn 0 -1 0 
vn 0 0 -1 
vn 0 0 -1 
vn 0 0 -1 
vn 0 0 -1 

vt 2.5 0 
vt 1.25 0 
vt 2.5 -3.16666 
vt 1.25 -3.16666 
vt 55.1521 0 
vt 1.25 0 
vt 55.1521 -1.25 
vt 1.25 -1.25 
vt 55.1521 0 
vt 1.25 0 
vt 55.1521 -3.16666 
vt 1.25 -3.16666 
vt 2.5 0 
vt 1.25 0 
vt 2.5 -3.16666 
vt 1.25 -3.16666 
vt 55.1521 0 
vt 1.25 0 
vt 55.1521 -1.25 
vt 1.25 -1.25 
vt 55.1521 0 
vt 1.25 0 
vt 55.1521 -3.16666 
vt 1.25 -3.16666 

usemtl Part2Mtl

f 25/25/25 26/26/26 27/27/27 
f 27/27/27 26/26/26 28/28/28 
f 29/29/29 30/30/30 31/31/31 
f 31/31/31 30/30/30 32/32/32 
f 33/33/33 34/34/34 35/35/35 
f 35/35/35 34/34/34 36/36/36 
f 37/37/37 38/38/38 39/39/39 
f 39/39/39 38/38/38 40/40/40 
f 41/41/41 42/42/42 43/43/43 
f 43/43/43 42/42/42 44/44/44 
f 45/45/45 46/46/46 47/47/47 
f 47/47/47 46/46/46 48/48/48 

g Part3

v 228.661 8.56353 -151.609 
v 228.661 8.56353 -141.609 
v 228.661 0.941534 -151.609 
v 228.661 0.941534 -141.609 
v -197.608 8.56353 -141.609 
v 228.661 8.56353 -141.609 
v -197.608 8.56353 -151.609 
v 228.661 8.56353 -151.609 
v 228.661 8.56353 -141.609 
v -197.608 8.56353 -141.609 
v 228.661 0.941534 -141.609 
v -197.608 0.941534 -141.609 
v -197.608 8.56353 -141.609 
v -197.608 8.56353 -151.609 
v -197.608 0.941534 -141.609 
v -197.608 0.941534 -151.609 
v -197.608 0.941534 -151.609 
v 228.661 0.941534 -151.609 
v -197.608 0.941534 -141.609 
v 228.661 0.941534 -141.609 
v -197.608 8.56353 -151.609 
v 228.661 8.56353 -151.609 
v -197.608 0.941534 -151.609 
v 228.661 0.941534 -151.609 

vn 1 0 0 
vn 1 0 0 
vn 1 0 0 
vn 1 0 0 
vn 0 1 0 
vn 0 1 0 
vn 0 1 0 
vn 0 1 0 
vn 0 0 1 
vn 0 0 1 
vn 0 0 1 
vn 0 0 1 
vn -1 0 0 
vn -1 0 0 
vn -1 0 0 
vn -1 0 0 
vn 0 -1 0 
vn 0 -1 0 
vn 0 -1 0 
vn 0 -1 0 
vn 0 0 -1 
vn 0 0 -1 
vn 0 0 -1 
vn 0 0 -1 

vt 3.5 -0.25 
vt 2.25 -0.25 
vt 3.5 -1.20275 
vt 2.25 -1.20275 
vt 55.5337 -0.25 
vt 2.25 -0.25 
vt 55.5337 -1.5 
vt 2.25 -1.5 
vt 55.5337 -0.25 
vt 2.25 -0.25 
vt 55.5337 -1.20275 
vt 2.25 -1.20275 
vt 3.5 -0.25 
vt 2.25 -0.25 
vt 3.5 -1.20275 
vt 2.25 -1.20275 
vt 55.5337 -0.25 
vt 2.25 -0.25 
vt 55.5337 -1.5 
vt 2.25 -1.5 
vt 55.5337 -0.25 
vt 2.25 -0.25 
vt 55.5337 -1.20275 
vt 2.25 -1.20275 

usemtl Part3Mtl

f 49/49/49 50/50/50 51/51/51 
f 51/51/51 50/50/50 52/52/52 
f 53/53/53 54/54/54 55/55/55 
f 55/55/55 54/54/54 56/56/56 
f 57/57/57 58/58/58 59/59/59 
f 59/59/59 58/58/58 60/60/60 
f 61/61/61 62/62/62 63/63/63 
f 63/63/63 62/62/62 64/64/64 
f 65/65/65 66/66/66 67/67/67 
f 67/67/67 66/66/66 68/68/68 
f 69/69/69 70/70/70 71/71/71 
f 71/71/71 70/70/70 72/72/72 

