# MagicaVoxel @ Ephtracy

# group
o 

# material
mtllib lapata-1.mtl
usemtl palette

# normals
vn -1 0 0
vn 1 0 0
vn 0 0 1
vn 0 0 -1
vn 0 -1 0
vn 0 1 0

# texcoords
vt 0.958984 0.5
vt 0.978516 0.5
vt 0.982422 0.5
vt 0.994141 0.5

# verts
v -1.3 0 1
v -1.3 0 -0.7
v -1.3 0.1 1
v -1.3 0.1 -0.7
v -1.2 0 1.3
v -1.2 0 1
v -1.2 0.1 1.3
v -1.2 0.1 1
v -1.1 0 1.5
v -1.1 0 1.3
v -1.1 0.1 1.5
v -1.1 0.1 1.3
v -1 0 1.6
v -1 0 1.5
v -1 0.1 1.6
v -1 0.1 1.5
v -0.9 0 1.8
v -0.9 0 1.6
v -0.9 0.1 1.8
v -0.9 0.1 1.6
v -0.7 0 1.9
v -0.7 0 1.8
v -0.7 0.1 1.9
v -0.7 0.1 1.8
v -0.6 0 2
v -0.6 0 1.9
v -0.6 0.1 2
v -0.6 0.1 1.9
v -0.4 0 2.1
v -0.4 0 2
v -0.4 0.1 2.1
v -0.4 0.1 2
v -0.3 0 2.2
v -0.3 0 2.1
v -0.3 0.1 2.2
v -0.3 0.1 2.1
v -0.2 0 2.3
v -0.2 0 2.2
v -0.2 0.1 2.3
v -0.2 0.1 2.2
v -0.0999999 0 2.3
v -0.0999999 0 2.2
v -0.0999999 0.1 2.3
v -0.0999999 0.1 2.2
v 0 0 2.2
v 0 0 2.1
v 0 0.1 2.2
v 0 0.1 2.1
v 0.2 0 2.1
v 0.2 0 2
v 0.2 0.1 2.1
v 0.2 0.1 2
v 0.3 0 2
v 0.3 0 1.9
v 0.3 0.1 2
v 0.3 0.1 1.9
v 0.4 0 1.9
v 0.4 0 1.8
v 0.4 0.1 1.9
v 0.4 0.1 1.8
v 0.6 0 1.8
v 0.6 0 1.6
v 0.6 0.1 1.8
v 0.6 0.1 1.6
v 0.7 0 1.6
v 0.7 0 1.5
v 0.7 0.1 1.6
v 0.7 0.1 1.5
v 0.8 0 1.5
v 0.8 0 1.3
v 0.8 0.1 1.5
v 0.8 0.1 1.3
v 0.9 0 1.3
v 0.9 0 1
v 0.9 0.1 1.3
v 0.9 0.1 1
v 1 0 1
v 1 0 -0.7
v 1 0.1 1
v 1 0.1 -0.7
v -0.2 0 2.3
v -0.2 0.1 2.3
v -0.0999999 0 2.3
v -0.0999999 0.1 2.3
v -0.3 0 2.2
v -0.3 0.1 2.2
v -0.2 0 2.2
v -0.2 0.1 2.2
v -0.0999999 0 2.2
v -0.0999999 0.1 2.2
v 0 0 2.2
v 0 0.1 2.2
v -0.4 0 2.1
v -0.4 0.1 2.1
v -0.3 0 2.1
v -0.3 0.1 2.1
v 0 0 2.1
v 0 0.1 2.1
v 0.2 0 2.1
v 0.2 0.1 2.1
v -0.6 0 2
v -0.6 0.1 2
v -0.4 0 2
v -0.4 0.1 2
v 0.2 0 2
v 0.2 0.1 2
v 0.3 0 2
v 0.3 0.1 2
v -0.7 0 1.9
v -0.7 0.1 1.9
v -0.6 0 1.9
v -0.6 0.1 1.9
v 0.3 0 1.9
v 0.3 0.1 1.9
v 0.4 0 1.9
v 0.4 0.1 1.9
v -0.9 0 1.8
v -0.9 0.1 1.8
v -0.7 0 1.8
v -0.7 0.1 1.8
v 0.4 0 1.8
v 0.4 0.1 1.8
v 0.6 0 1.8
v 0.6 0.1 1.8
v -1 0 1.6
v -1 0.1 1.6
v -0.9 0 1.6
v -0.9 0.1 1.6
v 0.6 0 1.6
v 0.6 0.1 1.6
v 0.7 0 1.6
v 0.7 0.1 1.6
v -1.1 0 1.5
v -1.1 0.1 1.5
v -1 0 1.5
v -1 0.1 1.5
v 0.7 0 1.5
v 0.7 0.1 1.5
v 0.8 0 1.5
v 0.8 0.1 1.5
v -1.2 0 1.3
v -1.2 0.1 1.3
v -1.1 0 1.3
v -1.1 0.1 1.3
v 0.8 0 1.3
v 0.8 0.1 1.3
v 0.9 0 1.3
v 0.9 0.1 1.3
v -1.3 0 1
v -1.3 0.1 1
v -1.2 0 1
v -1.2 0.1 1
v 0.9 0 1
v 0.9 0.1 1
v 1 0 1
v 1 0.1 1
v -1.3 0 -0.7
v -1.3 0.1 -0.7
v 1 0 -0.7
v 1 0.1 -0.7
v -0.2 0 2.3
v -0.0999999 0 2.3
v -0.3 0 2.2
v -0.2 0 2.2
v -0.0999999 0 2.2
v 0 0 2.2
v -0.4 0 2.1
v -0.3 0 2.1
v 0 0 2.1
v 0.2 0 2.1
v -0.6 0 2
v -0.4 0 2
v 0.2 0 2
v 0.3 0 2
v -0.7 0 1.9
v -0.6 0 1.9
v 0.3 0 1.9
v 0.4 0 1.9
v -0.9 0 1.8
v -0.7 0 1.8
v 0.4 0 1.8
v 0.6 0 1.8
v -1 0 1.6
v -0.9 0 1.6
v 0.6 0 1.6
v 0.7 0 1.6
v -1.1 0 1.5
v -1 0 1.5
v 0.7 0 1.5
v 0.8 0 1.5
v -1.2 0 1.3
v -1.1 0 1.3
v -0.9 0 1.3
v -0.8 0 1.3
v 0.5 0 1.3
v 0.6 0 1.3
v 0.8 0 1.3
v 0.9 0 1.3
v -0.9 0 1.1
v -0.8 0 1.1
v -0.7 0 1.1
v -0.5 0 1.1
v 0.2 0 1.1
v 0.4 0 1.1
v 0.5 0 1.1
v 0.6 0 1.1
v -1.3 0 1
v -1.2 0 1
v -0.8 0 1
v -0.7 0 1
v -0.5 0 1
v -0.4 0 1
v 0.1 0 1
v 0.2 0 1
v 0.4 0 1
v 0.5 0 1
v 0.9 0 1
v 1 0 1
v -0.7 0 0.9
v -0.4 0 0.9
v 0.1 0 0.9
v 0.4 0 0.9
v -0.4 0 0.8
v 0.1 0 0.8
v -0.9 0 0.5
v -0.3 0 0.5
v 0 0 0.5
v 0.6 0 0.5
v -1 0 0.4
v -0.9 0 0.4
v -0.8 0 0.4
v -0.4 0 0.4
v -0.3 0 0.4
v -0.2 0 0.4
v -0.0999999 0 0.4
v 0 0 0.4
v 0.1 0 0.4
v 0.5 0 0.4
v 0.6 0 0.4
v 0.7 0 0.4
v -0.9 0 0.3
v -0.8 0 0.3
v -0.4 0 0.3
v -0.3 0 0.3
v 0 0 0.3
v 0.1 0 0.3
v 0.5 0 0.3
v 0.6 0 0.3
v -1 0 0.2
v -0.9 0 0.2
v -0.8 0 0.2
v -0.4 0 0.2
v -0.3 0 0.2
v -0.2 0 0.2
v -0.0999999 0 0.2
v 0 0 0.2
v 0.1 0 0.2
v 0.5 0 0.2
v 0.6 0 0.2
v 0.7 0 0.2
v -0.7 0 0.1
v -0.6 0 0.1
v 0.2 0 0.1
v 0.3 0 0.1
v -1 0 0
v -0.9 0 0
v -0.8 0 0
v -0.7 0 0
v -0.6 0 0
v -0.4 0 0
v -0.3 0 0
v 0 0 0
v 0.1 0 0
v 0.2 0 0
v 0.3 0 0
v 0.5 0 0
v 0.6 0 0
v 0.7 0 0
v -1 0 -0.0999999
v -0.9 0 -0.0999999
v 0.6 0 -0.0999999
v 0.7 0 -0.0999999
v -0.9 0 -0.2
v -0.5 0 -0.2
v 0.2 0 -0.2
v 0.6 0 -0.2
v -0.5 0 -0.3
v -0.3 0 -0.3
v 0 0 -0.3
v 0.2 0 -0.3
v -1.3 0 -0.7
v 1 0 -0.7
v -0.2 0.1 2.3
v -0.0999999 0.1 2.3
v -0.3 0.1 2.2
v -0.2 0.1 2.2
v -0.0999999 0.1 2.2
v 0 0.1 2.2
v -0.4 0.1 2.1
v -0.3 0.1 2.1
v 0 0.1 2.1
v 0.2 0.1 2.1
v -0.6 0.1 2
v -0.4 0.1 2
v 0.2 0.1 2
v 0.3 0.1 2
v -0.7 0.1 1.9
v -0.6 0.1 1.9
v 0.3 0.1 1.9
v 0.4 0.1 1.9
v -0.9 0.1 1.8
v -0.7 0.1 1.8
v 0.4 0.1 1.8
v 0.6 0.1 1.8
v -1 0.1 1.6
v -0.9 0.1 1.6
v 0.6 0.1 1.6
v 0.7 0.1 1.6
v -1.1 0.1 1.5
v -1 0.1 1.5
v 0.7 0.1 1.5
v 0.8 0.1 1.5
v -1.2 0.1 1.3
v -1.1 0.1 1.3
v -0.9 0.1 1.3
v -0.8 0.1 1.3
v 0.5 0.1 1.3
v 0.6 0.1 1.3
v 0.8 0.1 1.3
v 0.9 0.1 1.3
v -0.9 0.1 1.1
v -0.8 0.1 1.1
v -0.7 0.1 1.1
v -0.5 0.1 1.1
v 0.2 0.1 1.1
v 0.4 0.1 1.1
v 0.5 0.1 1.1
v 0.6 0.1 1.1
v -1.3 0.1 1
v -1.2 0.1 1
v -0.8 0.1 1
v -0.7 0.1 1
v -0.5 0.1 1
v -0.4 0.1 1
v 0.1 0.1 1
v 0.2 0.1 1
v 0.4 0.1 1
v 0.5 0.1 1
v 0.9 0.1 1
v 1 0.1 1
v -0.7 0.1 0.9
v -0.4 0.1 0.9
v 0.1 0.1 0.9
v 0.4 0.1 0.9
v -0.4 0.1 0.8
v 0.1 0.1 0.8
v -0.9 0.1 0.5
v -0.3 0.1 0.5
v 0 0.1 0.5
v 0.6 0.1 0.5
v -1 0.1 0.4
v -0.9 0.1 0.4
v -0.8 0.1 0.4
v -0.4 0.1 0.4
v -0.3 0.1 0.4
v -0.2 0.1 0.4
v -0.0999999 0.1 0.4
v 0 0.1 0.4
v 0.1 0.1 0.4
v 0.5 0.1 0.4
v 0.6 0.1 0.4
v 0.7 0.1 0.4
v -0.9 0.1 0.3
v -0.8 0.1 0.3
v -0.4 0.1 0.3
v -0.3 0.1 0.3
v 0 0.1 0.3
v 0.1 0.1 0.3
v 0.5 0.1 0.3
v 0.6 0.1 0.3
v -1 0.1 0.2
v -0.9 0.1 0.2
v -0.8 0.1 0.2
v -0.4 0.1 0.2
v -0.3 0.1 0.2
v -0.2 0.1 0.2
v -0.0999999 0.1 0.2
v 0 0.1 0.2
v 0.1 0.1 0.2
v 0.5 0.1 0.2
v 0.6 0.1 0.2
v 0.7 0.1 0.2
v -0.7 0.1 0.1
v -0.6 0.1 0.1
v 0.2 0.1 0.1
v 0.3 0.1 0.1
v -1 0.1 0
v -0.9 0.1 0
v -0.8 0.1 0
v -0.7 0.1 0
v -0.6 0.1 0
v -0.4 0.1 0
v -0.3 0.1 0
v 0 0.1 0
v 0.1 0.1 0
v 0.2 0.1 0
v 0.3 0.1 0
v 0.5 0.1 0
v 0.6 0.1 0
v 0.7 0.1 0
v -1 0.1 -0.0999999
v -0.9 0.1 -0.0999999
v 0.6 0.1 -0.0999999
v 0.7 0.1 -0.0999999
v -0.9 0.1 -0.2
v -0.5 0.1 -0.2
v 0.2 0.1 -0.2
v 0.6 0.1 -0.2
v -0.5 0.1 -0.3
v -0.3 0.1 -0.3
v 0 0.1 -0.3
v 0.2 0.1 -0.3
v -1.3 0.1 -0.7
v 1 0.1 -0.7

# faces
f 3/2/1 2/2/1 1/2/1
f 4/2/1 2/2/1 3/2/1
f 7/2/1 6/2/1 5/2/1
f 8/2/1 6/2/1 7/2/1
f 11/2/1 10/2/1 9/2/1
f 12/2/1 10/2/1 11/2/1
f 15/2/1 14/2/1 13/2/1
f 16/2/1 14/2/1 15/2/1
f 19/2/1 18/2/1 17/2/1
f 20/2/1 18/2/1 19/2/1
f 23/2/1 22/2/1 21/2/1
f 24/2/1 22/2/1 23/2/1
f 27/2/1 26/2/1 25/2/1
f 28/2/1 26/2/1 27/2/1
f 31/2/1 30/2/1 29/2/1
f 32/2/1 30/2/1 31/2/1
f 35/2/1 34/2/1 33/2/1
f 36/2/1 34/2/1 35/2/1
f 39/2/1 38/2/1 37/2/1
f 40/2/1 38/2/1 39/2/1
f 41/2/2 42/2/2 43/2/2
f 43/2/2 42/2/2 44/2/2
f 45/2/2 46/2/2 47/2/2
f 47/2/2 46/2/2 48/2/2
f 49/2/2 50/2/2 51/2/2
f 51/2/2 50/2/2 52/2/2
f 53/2/2 54/2/2 55/2/2
f 55/2/2 54/2/2 56/2/2
f 57/2/2 58/2/2 59/2/2
f 59/2/2 58/2/2 60/2/2
f 61/2/2 62/2/2 63/2/2
f 63/2/2 62/2/2 64/2/2
f 65/2/2 66/2/2 67/2/2
f 67/2/2 66/2/2 68/2/2
f 69/2/2 70/2/2 71/2/2
f 71/2/2 70/2/2 72/2/2
f 73/2/2 74/2/2 75/2/2
f 75/2/2 74/2/2 76/2/2
f 77/2/2 78/2/2 79/2/2
f 79/2/2 78/2/2 80/2/2
f 83/2/3 82/2/3 81/2/3
f 84/2/3 82/2/3 83/2/3
f 87/2/3 86/2/3 85/2/3
f 88/2/3 86/2/3 87/2/3
f 91/2/3 90/2/3 89/2/3
f 92/2/3 90/2/3 91/2/3
f 95/2/3 94/2/3 93/2/3
f 96/2/3 94/2/3 95/2/3
f 99/2/3 98/2/3 97/2/3
f 100/2/3 98/2/3 99/2/3
f 103/2/3 102/2/3 101/2/3
f 104/2/3 102/2/3 103/2/3
f 107/2/3 106/2/3 105/2/3
f 108/2/3 106/2/3 107/2/3
f 111/2/3 110/2/3 109/2/3
f 112/2/3 110/2/3 111/2/3
f 115/2/3 114/2/3 113/2/3
f 116/2/3 114/2/3 115/2/3
f 119/2/3 118/2/3 117/2/3
f 120/2/3 118/2/3 119/2/3
f 123/2/3 122/2/3 121/2/3
f 124/2/3 122/2/3 123/2/3
f 127/2/3 126/2/3 125/2/3
f 128/2/3 126/2/3 127/2/3
f 131/2/3 130/2/3 129/2/3
f 132/2/3 130/2/3 131/2/3
f 135/2/3 134/2/3 133/2/3
f 136/2/3 134/2/3 135/2/3
f 139/2/3 138/2/3 137/2/3
f 140/2/3 138/2/3 139/2/3
f 143/2/3 142/2/3 141/2/3
f 144/2/3 142/2/3 143/2/3
f 147/2/3 146/2/3 145/2/3
f 148/2/3 146/2/3 147/2/3
f 151/2/3 150/2/3 149/2/3
f 152/2/3 150/2/3 151/2/3
f 155/2/3 154/2/3 153/2/3
f 156/2/3 154/2/3 155/2/3
f 157/2/4 158/2/4 159/2/4
f 159/2/4 158/2/4 160/2/4
f 164/2/5 162/2/5 161/2/5
f 165/2/5 162/2/5 164/2/5
f 168/2/5 164/2/5 163/2/5
f 168/2/5 166/2/5 165/2/5
f 168/2/5 165/2/5 164/2/5
f 169/2/5 166/2/5 168/2/5
f 172/2/5 168/2/5 167/2/5
f 172/2/5 170/2/5 169/2/5
f 172/2/5 169/2/5 168/2/5
f 173/2/5 170/2/5 172/2/5
f 176/2/5 172/2/5 171/2/5
f 176/2/5 174/2/5 173/2/5
f 176/2/5 173/2/5 172/2/5
f 177/2/5 174/2/5 176/2/5
f 180/2/5 176/2/5 175/2/5
f 180/2/5 178/2/5 177/2/5
f 180/2/5 177/2/5 176/2/5
f 181/2/5 178/2/5 180/2/5
f 184/2/5 180/2/5 179/2/5
f 184/2/5 182/2/5 181/2/5
f 184/2/5 181/2/5 180/2/5
f 185/2/5 182/2/5 184/2/5
f 188/2/5 184/2/5 183/2/5
f 188/2/5 186/2/5 185/2/5
f 188/2/5 185/2/5 184/2/5
f 189/2/5 186/2/5 188/2/5
f 192/2/5 188/2/5 187/2/5
f 192/2/5 190/2/5 189/2/5
f 192/2/5 189/2/5 188/2/5
f 193/2/5 190/2/5 192/2/5
f 194/2/5 190/2/5 193/2/5
f 195/2/5 190/2/5 194/2/5
f 196/2/5 190/2/5 195/2/5
f 197/2/5 190/2/5 196/2/5
f 199/2/5 192/2/5 191/2/5
f 199/2/5 193/2/5 192/2/5
f 199/4/5 194/4/5 193/4/5
f 200/2/5 195/2/5 194/2/5
f 200/4/5 194/4/5 199/4/5
f 201/2/5 195/2/5 200/2/5
f 202/2/5 195/2/5 201/2/5
f 203/2/5 195/2/5 202/2/5
f 204/2/5 195/2/5 203/2/5
f 205/4/5 196/4/5 195/4/5
f 205/2/5 195/2/5 204/2/5
f 206/2/5 198/2/5 197/2/5
f 206/4/5 196/4/5 205/4/5
f 206/2/5 197/2/5 196/2/5
f 208/2/5 199/2/5 191/2/5
f 208/2/5 200/2/5 199/2/5
f 209/4/5 201/4/5 200/4/5
f 209/2/5 200/2/5 208/2/5
f 210/2/5 202/2/5 201/2/5
f 210/4/5 201/4/5 209/4/5
f 211/3/5 203/3/5 202/3/5
f 211/2/5 202/2/5 210/2/5
f 212/3/5 203/3/5 211/3/5
f 213/3/5 203/3/5 212/3/5
f 214/2/5 204/2/5 203/2/5
f 214/3/5 203/3/5 213/3/5
f 215/4/5 205/4/5 204/4/5
f 215/2/5 204/2/5 214/2/5
f 216/2/5 206/2/5 205/2/5
f 216/4/5 205/4/5 215/4/5
f 217/2/5 198/2/5 206/2/5
f 217/2/5 206/2/5 216/2/5
f 219/2/5 210/2/5 209/2/5
f 219/2/5 208/2/5 207/2/5
f 219/2/5 209/2/5 208/2/5
f 219/4/5 212/4/5 211/4/5
f 219/4/5 211/4/5 210/4/5
f 220/3/5 213/3/5 212/3/5
f 220/4/5 212/4/5 219/4/5
f 221/4/5 214/4/5 213/4/5
f 221/3/5 213/3/5 220/3/5
f 221/4/5 215/4/5 214/4/5
f 222/2/5 218/2/5 217/2/5
f 222/4/5 215/4/5 221/4/5
f 222/2/5 216/2/5 215/2/5
f 222/2/5 217/2/5 216/2/5
f 223/2/5 220/2/5 219/2/5
f 223/4/5 221/4/5 220/4/5
f 224/2/5 222/2/5 221/2/5
f 224/4/5 221/4/5 223/4/5
f 225/2/5 223/2/5 219/2/5
f 225/2/5 219/2/5 207/2/5
f 225/2/5 224/2/5 223/2/5
f 226/2/5 224/2/5 225/2/5
f 227/2/5 224/2/5 226/2/5
f 228/2/5 218/2/5 222/2/5
f 228/2/5 224/2/5 227/2/5
f 228/2/5 222/2/5 224/2/5
f 229/2/5 225/2/5 207/2/5
f 230/3/5 226/3/5 225/3/5
f 230/2/5 225/2/5 229/2/5
f 231/3/5 226/3/5 230/3/5
f 232/3/5 226/3/5 231/3/5
f 233/2/5 227/2/5 226/2/5
f 233/3/5 226/3/5 232/3/5
f 234/2/5 227/2/5 233/2/5
f 235/2/5 227/2/5 234/2/5
f 236/3/5 228/3/5 227/3/5
f 236/2/5 227/2/5 235/2/5
f 237/3/5 228/3/5 236/3/5
f 238/3/5 228/3/5 237/3/5
f 239/2/5 218/2/5 228/2/5
f 239/3/5 228/3/5 238/3/5
f 240/2/5 218/2/5 239/2/5
f 241/3/5 230/3/5 229/3/5
f 241/3/5 231/3/5 230/3/5
f 242/1/5 232/1/5 231/1/5
f 242/3/5 231/3/5 241/3/5
f 243/3/5 233/3/5 232/3/5
f 243/1/5 232/1/5 242/1/5
f 243/3/5 234/3/5 233/3/5
f 244/3/5 234/3/5 243/3/5
f 245/3/5 236/3/5 235/3/5
f 245/3/5 237/3/5 236/3/5
f 246/1/5 238/1/5 237/1/5
f 246/3/5 237/3/5 245/3/5
f 247/3/5 240/3/5 239/3/5
f 247/1/5 238/1/5 246/1/5
f 247/3/5 239/3/5 238/3/5
f 248/3/5 240/3/5 247/3/5
f 249/3/5 241/3/5 229/3/5
f 249/2/5 229/2/5 207/2/5
f 250/1/5 242/1/5 241/1/5
f 250/3/5 241/3/5 249/3/5
f 250/1/5 243/1/5 242/1/5
f 250/1/5 244/1/5 243/1/5
f 251/1/5 244/1/5 250/1/5
f 252/1/5 244/1/5 251/1/5
f 253/3/5 234/3/5 244/3/5
f 253/1/5 244/1/5 252/1/5
f 254/2/5 235/2/5 234/2/5
f 254/3/5 234/3/5 253/3/5
f 255/3/5 245/3/5 235/3/5
f 255/2/5 235/2/5 254/2/5
f 256/1/5 248/1/5 247/1/5
f 256/3/5 245/3/5 255/3/5
f 256/1/5 246/1/5 245/1/5
f 256/1/5 247/1/5 246/1/5
f 257/1/5 248/1/5 256/1/5
f 258/1/5 248/1/5 257/1/5
f 259/3/5 240/3/5 248/3/5
f 259/1/5 248/1/5 258/1/5
f 260/2/5 218/2/5 240/2/5
f 260/3/5 240/3/5 259/3/5
f 261/4/5 252/4/5 251/4/5
f 262/4/5 252/4/5 261/4/5
f 263/4/5 258/4/5 257/4/5
f 264/4/5 258/4/5 263/4/5
f 265/2/5 249/2/5 207/2/5
f 265/2/5 250/2/5 249/2/5
f 266/1/5 251/1/5 250/1/5
f 266/2/5 250/2/5 265/2/5
f 267/4/5 261/4/5 251/4/5
f 267/1/5 251/1/5 266/1/5
f 268/1/5 262/1/5 261/1/5
f 268/4/5 261/4/5 267/4/5
f 269/4/5 252/4/5 262/4/5
f 269/1/5 262/1/5 268/1/5
f 270/1/5 253/1/5 252/1/5
f 270/4/5 252/4/5 269/4/5
f 271/2/5 255/2/5 254/2/5
f 271/1/5 253/1/5 270/1/5
f 271/2/5 254/2/5 253/2/5
f 271/2/5 256/2/5 255/2/5
f 272/1/5 257/1/5 256/1/5
f 272/2/5 256/2/5 271/2/5
f 273/4/5 263/4/5 257/4/5
f 273/1/5 257/1/5 272/1/5
f 274/1/5 264/1/5 263/1/5
f 274/4/5 263/4/5 273/4/5
f 275/4/5 258/4/5 264/4/5
f 275/1/5 264/1/5 274/1/5
f 276/1/5 259/1/5 258/1/5
f 276/4/5 258/4/5 275/4/5
f 277/2/5 260/2/5 259/2/5
f 277/1/5 259/1/5 276/1/5
f 278/2/5 218/2/5 260/2/5
f 278/2/5 260/2/5 277/2/5
f 279/3/5 268/3/5 267/3/5
f 279/3/5 270/3/5 269/3/5
f 279/3/5 269/3/5 268/3/5
f 279/3/5 266/3/5 265/3/5
f 279/2/5 265/2/5 207/2/5
f 279/3/5 271/3/5 270/3/5
f 279/3/5 267/3/5 266/3/5
f 280/3/5 271/3/5 279/3/5
f 281/3/5 278/3/5 277/3/5
f 281/3/5 276/3/5 275/3/5
f 281/3/5 275/3/5 274/3/5
f 281/3/5 277/3/5 276/3/5
f 281/3/5 273/3/5 272/3/5
f 281/3/5 274/3/5 273/3/5
f 282/2/5 218/2/5 278/2/5
f 282/3/5 278/3/5 281/3/5
f 283/3/5 271/3/5 280/3/5
f 283/2/5 280/2/5 279/2/5
f 284/3/5 271/3/5 283/3/5
f 285/3/5 281/3/5 272/3/5
f 286/2/5 282/2/5 281/2/5
f 286/3/5 281/3/5 285/3/5
f 287/3/5 271/3/5 284/3/5
f 287/2/5 284/2/5 283/2/5
f 288/2/5 272/2/5 271/2/5
f 288/3/5 271/3/5 287/3/5
f 289/3/5 285/3/5 272/3/5
f 289/2/5 272/2/5 288/2/5
f 290/2/5 286/2/5 285/2/5
f 290/3/5 285/3/5 289/3/5
f 291/2/5 287/2/5 283/2/5
f 291/2/5 288/2/5 287/2/5
f 291/2/5 290/2/5 289/2/5
f 291/2/5 289/2/5 288/2/5
f 291/2/5 283/2/5 279/2/5
f 291/2/5 279/2/5 207/2/5
f 292/2/5 282/2/5 286/2/5
f 292/2/5 290/2/5 291/2/5
f 292/2/5 218/2/5 282/2/5
f 292/2/5 286/2/5 290/2/5
f 293/2/6 294/2/6 296/2/6
f 296/2/6 294/2/6 297/2/6
f 295/2/6 296/2/6 300/2/6
f 297/2/6 298/2/6 300/2/6
f 296/2/6 297/2/6 300/2/6
f 300/2/6 298/2/6 301/2/6
f 299/2/6 300/2/6 304/2/6
f 301/2/6 302/2/6 304/2/6
f 300/2/6 301/2/6 304/2/6
f 304/2/6 302/2/6 305/2/6
f 303/2/6 304/2/6 308/2/6
f 305/2/6 306/2/6 308/2/6
f 304/2/6 305/2/6 308/2/6
f 308/2/6 306/2/6 309/2/6
f 307/2/6 308/2/6 312/2/6
f 309/2/6 310/2/6 312/2/6
f 308/2/6 309/2/6 312/2/6
f 312/2/6 310/2/6 313/2/6
f 311/2/6 312/2/6 316/2/6
f 313/2/6 314/2/6 316/2/6
f 312/2/6 313/2/6 316/2/6
f 316/2/6 314/2/6 317/2/6
f 315/2/6 316/2/6 320/2/6
f 317/2/6 318/2/6 320/2/6
f 316/2/6 317/2/6 320/2/6
f 320/2/6 318/2/6 321/2/6
f 319/2/6 320/2/6 324/2/6
f 321/2/6 322/2/6 324/2/6
f 320/2/6 321/2/6 324/2/6
f 324/2/6 322/2/6 325/2/6
f 325/2/6 322/2/6 326/2/6
f 326/2/6 322/2/6 327/2/6
f 327/2/6 322/2/6 328/2/6
f 328/2/6 322/2/6 329/2/6
f 323/2/6 324/2/6 331/2/6
f 324/2/6 325/2/6 331/2/6
f 325/4/6 326/4/6 331/4/6
f 326/2/6 327/2/6 332/2/6
f 331/4/6 326/4/6 332/4/6
f 332/2/6 327/2/6 333/2/6
f 333/2/6 327/2/6 334/2/6
f 334/2/6 327/2/6 335/2/6
f 335/2/6 327/2/6 336/2/6
f 327/4/6 328/4/6 337/4/6
f 336/2/6 327/2/6 337/2/6
f 329/2/6 330/2/6 338/2/6
f 337/4/6 328/4/6 338/4/6
f 328/2/6 329/2/6 338/2/6
f 323/2/6 331/2/6 340/2/6
f 331/2/6 332/2/6 340/2/6
f 332/4/6 333/4/6 341/4/6
f 340/2/6 332/2/6 341/2/6
f 333/2/6 334/2/6 342/2/6
f 341/4/6 333/4/6 342/4/6
f 334/3/6 335/3/6 343/3/6
f 342/2/6 334/2/6 343/2/6
f 343/3/6 335/3/6 344/3/6
f 344/3/6 335/3/6 345/3/6
f 335/2/6 336/2/6 346/2/6
f 345/3/6 335/3/6 346/3/6
f 336/4/6 337/4/6 347/4/6
f 346/2/6 336/2/6 347/2/6
f 337/2/6 338/2/6 348/2/6
f 347/4/6 337/4/6 348/4/6
f 338/2/6 330/2/6 349/2/6
f 348/2/6 338/2/6 349/2/6
f 341/2/6 342/2/6 351/2/6
f 339/2/6 340/2/6 351/2/6
f 340/2/6 341/2/6 351/2/6
f 343/4/6 344/4/6 351/4/6
f 342/4/6 343/4/6 351/4/6
f 344/3/6 345/3/6 352/3/6
f 351/4/6 344/4/6 352/4/6
f 345/4/6 346/4/6 353/4/6
f 352/3/6 345/3/6 353/3/6
f 346/4/6 347/4/6 353/4/6
f 349/2/6 350/2/6 354/2/6
f 353/4/6 347/4/6 354/4/6
f 347/2/6 348/2/6 354/2/6
f 348/2/6 349/2/6 354/2/6
f 351/2/6 352/2/6 355/2/6
f 352/4/6 353/4/6 355/4/6
f 353/2/6 354/2/6 356/2/6
f 355/4/6 353/4/6 356/4/6
f 351/2/6 355/2/6 357/2/6
f 339/2/6 351/2/6 357/2/6
f 355/2/6 356/2/6 357/2/6
f 357/2/6 356/2/6 358/2/6
f 358/2/6 356/2/6 359/2/6
f 354/2/6 350/2/6 360/2/6
f 359/2/6 356/2/6 360/2/6
f 356/2/6 354/2/6 360/2/6
f 339/2/6 357/2/6 361/2/6
f 357/3/6 358/3/6 362/3/6
f 361/2/6 357/2/6 362/2/6
f 362/3/6 358/3/6 363/3/6
f 363/3/6 358/3/6 364/3/6
f 358/2/6 359/2/6 365/2/6
f 364/3/6 358/3/6 365/3/6
f 365/2/6 359/2/6 366/2/6
f 366/2/6 359/2/6 367/2/6
f 359/3/6 360/3/6 368/3/6
f 367/2/6 359/2/6 368/2/6
f 368/3/6 360/3/6 369/3/6
f 369/3/6 360/3/6 370/3/6
f 360/2/6 350/2/6 371/2/6
f 370/3/6 360/3/6 371/3/6
f 371/2/6 350/2/6 372/2/6
f 361/3/6 362/3/6 373/3/6
f 362/3/6 363/3/6 373/3/6
f 363/1/6 364/1/6 374/1/6
f 373/3/6 363/3/6 374/3/6
f 364/3/6 365/3/6 375/3/6
f 374/1/6 364/1/6 375/1/6
f 365/3/6 366/3/6 375/3/6
f 375/3/6 366/3/6 376/3/6
f 367/3/6 368/3/6 377/3/6
f 368/3/6 369/3/6 377/3/6
f 369/1/6 370/1/6 378/1/6
f 377/3/6 369/3/6 378/3/6
f 371/3/6 372/3/6 379/3/6
f 378/1/6 370/1/6 379/1/6
f 370/3/6 371/3/6 379/3/6
f 379/3/6 372/3/6 380/3/6
f 361/3/6 373/3/6 381/3/6
f 339/2/6 361/2/6 381/2/6
f 373/1/6 374/1/6 382/1/6
f 381/3/6 373/3/6 382/3/6
f 374/1/6 375/1/6 382/1/6
f 375/1/6 376/1/6 382/1/6
f 382/1/6 376/1/6 383/1/6
f 383/1/6 376/1/6 384/1/6
f 376/3/6 366/3/6 385/3/6
f 384/1/6 376/1/6 385/1/6
f 366/2/6 367/2/6 386/2/6
f 385/3/6 366/3/6 386/3/6
f 367/3/6 377/3/6 387/3/6
f 386/2/6 367/2/6 387/2/6
f 379/1/6 380/1/6 388/1/6
f 387/3/6 377/3/6 388/3/6
f 377/1/6 378/1/6 388/1/6
f 378/1/6 379/1/6 388/1/6
f 388/1/6 380/1/6 389/1/6
f 389/1/6 380/1/6 390/1/6
f 380/3/6 372/3/6 391/3/6
f 390/1/6 380/1/6 391/1/6
f 372/2/6 350/2/6 392/2/6
f 391/3/6 372/3/6 392/3/6
f 383/4/6 384/4/6 393/4/6
f 393/4/6 384/4/6 394/4/6
f 389/4/6 390/4/6 395/4/6
f 395/4/6 390/4/6 396/4/6
f 339/2/6 381/2/6 397/2/6
f 381/2/6 382/2/6 397/2/6
f 382/1/6 383/1/6 398/1/6
f 397/2/6 382/2/6 398/2/6
f 383/4/6 393/4/6 399/4/6
f 398/1/6 383/1/6 399/1/6
f 393/1/6 394/1/6 400/1/6
f 399/4/6 393/4/6 400/4/6
f 394/4/6 384/4/6 401/4/6
f 400/1/6 394/1/6 401/1/6
f 384/1/6 385/1/6 402/1/6
f 401/4/6 384/4/6 402/4/6
f 386/2/6 387/2/6 403/2/6
f 402/1/6 385/1/6 403/1/6
f 385/2/6 386/2/6 403/2/6
f 387/2/6 388/2/6 403/2/6
f 388/1/6 389/1/6 404/1/6
f 403/2/6 388/2/6 404/2/6
f 389/4/6 395/4/6 405/4/6
f 404/1/6 389/1/6 405/1/6
f 395/1/6 396/1/6 406/1/6
f 405/4/6 395/4/6 406/4/6
f 396/4/6 390/4/6 407/4/6
f 406/1/6 396/1/6 407/1/6
f 390/1/6 391/1/6 408/1/6
f 407/4/6 390/4/6 408/4/6
f 391/2/6 392/2/6 409/2/6
f 408/1/6 391/1/6 409/1/6
f 392/2/6 350/2/6 410/2/6
f 409/2/6 392/2/6 410/2/6
f 399/3/6 400/3/6 411/3/6
f 401/3/6 402/3/6 411/3/6
f 400/3/6 401/3/6 411/3/6
f 397/3/6 398/3/6 411/3/6
f 339/2/6 397/2/6 411/2/6
f 402/3/6 403/3/6 411/3/6
f 398/3/6 399/3/6 411/3/6
f 411/3/6 403/3/6 412/3/6
f 409/3/6 410/3/6 413/3/6
f 407/3/6 408/3/6 413/3/6
f 406/3/6 407/3/6 413/3/6
f 408/3/6 409/3/6 413/3/6
f 404/3/6 405/3/6 413/3/6
f 405/3/6 406/3/6 413/3/6
f 410/2/6 350/2/6 414/2/6
f 413/3/6 410/3/6 414/3/6
f 412/3/6 403/3/6 415/3/6
f 411/2/6 412/2/6 415/2/6
f 415/3/6 403/3/6 416/3/6
f 404/3/6 413/3/6 417/3/6
f 413/2/6 414/2/6 418/2/6
f 417/3/6 413/3/6 418/3/6
f 416/3/6 403/3/6 419/3/6
f 415/2/6 416/2/6 419/2/6
f 403/2/6 404/2/6 420/2/6
f 419/3/6 403/3/6 420/3/6
f 404/3/6 417/3/6 421/3/6
f 420/2/6 404/2/6 421/2/6
f 417/2/6 418/2/6 422/2/6
f 421/3/6 417/3/6 422/3/6
f 415/2/6 419/2/6 423/2/6
f 419/2/6 420/2/6 423/2/6
f 421/2/6 422/2/6 423/2/6
f 420/2/6 421/2/6 423/2/6
f 411/2/6 415/2/6 423/2/6
f 339/2/6 411/2/6 423/2/6
f 418/2/6 414/2/6 424/2/6
f 423/2/6 422/2/6 424/2/6
f 414/2/6 350/2/6 424/2/6
f 422/2/6 418/2/6 424/2/6
