# MagicaVoxel @ Ephtracy

# group
o 

# material
mtllib lapata-1.mtl
usemtl palette

# normals
vn -1 0 0
vn 1 0 0
vn 0 0 1
vn 0 0 -1
vn 0 -1 0
vn 0 1 0

# texcoords
vt 0.958984 0.5
vt 0.978516 0.5
vt 0.982422 0.5
vt 0.994141 0.5

# verts
v -1.3 0 1
v -1.3 0 0.9
v -1.3 0 0.8
v -1.3 0 -0.7
v -1.3 0.1 1
v -1.3 0.1 0.9
v -1.3 0.1 0.8
v -1.3 0.1 -0.7
v -1.2 0 1.3
v -1.2 0 1
v -1.2 0.1 1.3
v -1.2 0.1 1
v -1.1 0 1.5
v -1.1 0 1.3
v -1.1 0.1 1.5
v -1.1 0.1 1.3
v -1 0 1.6
v -1 0 1.5
v -1 0.1 1.6
v -1 0.1 1.5
v -0.9 0 1.8
v -0.9 0 1.6
v -0.9 0.1 1.8
v -0.9 0.1 1.6
v -0.7 0 1.9
v -0.7 0 1.8
v -0.7 0.1 1.9
v -0.7 0.1 1.8
v -0.6 0 2
v -0.6 0 1.9
v -0.6 0.1 2
v -0.6 0.1 1.9
v -0.4 0 2.1
v -0.4 0 2
v -0.4 0.1 2.1
v -0.4 0.1 2
v -0.3 0 2.2
v -0.3 0 2.1
v -0.3 0.1 2.2
v -0.3 0.1 2.1
v -0.2 0 2.3
v -0.2 0 2.2
v -0.2 0.1 2.3
v -0.2 0.1 2.2
v -0.0999999 0 2.3
v -0.0999999 0 2.2
v -0.0999999 0.1 2.3
v -0.0999999 0.1 2.2
v 0 0 2.2
v 0 0 2.1
v 0 0.1 2.2
v 0 0.1 2.1
v 0.2 0 2.1
v 0.2 0 2
v 0.2 0.1 2.1
v 0.2 0.1 2
v 0.3 0 2
v 0.3 0 1.9
v 0.3 0.1 2
v 0.3 0.1 1.9
v 0.4 0 1.9
v 0.4 0 1.8
v 0.4 0.1 1.9
v 0.4 0.1 1.8
v 0.6 0 1.8
v 0.6 0 1.6
v 0.6 0.1 1.8
v 0.6 0.1 1.6
v 0.7 0 1.6
v 0.7 0 1.5
v 0.7 0.1 1.6
v 0.7 0.1 1.5
v 0.8 0 1.5
v 0.8 0 1.3
v 0.8 0.1 1.5
v 0.8 0.1 1.3
v 0.9 0 1.3
v 0.9 0 1
v 0.9 0.1 1.3
v 0.9 0.1 1
v 1 0 1
v 1 0 0.8
v 1 0 0.7
v 1 0 -0.7
v 1 0.1 1
v 1 0.1 0.8
v 1 0.1 0.7
v 1 0.1 -0.7
v -0.2 0 2.3
v -0.2 0.1 2.3
v -0.0999999 0 2.3
v -0.0999999 0.1 2.3
v -0.3 0 2.2
v -0.3 0.1 2.2
v -0.2 0 2.2
v -0.2 0.1 2.2
v -0.0999999 0 2.2
v -0.0999999 0.1 2.2
v 0 0 2.2
v 0 0.1 2.2
v -0.4 0 2.1
v -0.4 0.1 2.1
v -0.3 0 2.1
v -0.3 0.1 2.1
v 0 0 2.1
v 0 0.1 2.1
v 0.2 0 2.1
v 0.2 0.1 2.1
v -0.6 0 2
v -0.6 0.1 2
v -0.4 0 2
v -0.4 0.1 2
v 0.2 0 2
v 0.2 0.1 2
v 0.3 0 2
v 0.3 0.1 2
v -0.7 0 1.9
v -0.7 0.1 1.9
v -0.6 0 1.9
v -0.6 0.1 1.9
v 0.3 0 1.9
v 0.3 0.1 1.9
v 0.4 0 1.9
v 0.4 0.1 1.9
v -0.9 0 1.8
v -0.9 0.1 1.8
v -0.7 0 1.8
v -0.7 0.1 1.8
v 0.4 0 1.8
v 0.4 0.1 1.8
v 0.6 0 1.8
v 0.6 0.1 1.8
v -1 0 1.6
v -1 0.1 1.6
v -0.9 0 1.6
v -0.9 0.1 1.6
v 0.6 0 1.6
v 0.6 0.1 1.6
v 0.7 0 1.6
v 0.7 0.1 1.6
v -1.1 0 1.5
v -1.1 0.1 1.5
v -1 0 1.5
v -1 0.1 1.5
v 0.7 0 1.5
v 0.7 0.1 1.5
v 0.8 0 1.5
v 0.8 0.1 1.5
v -1.2 0 1.3
v -1.2 0.1 1.3
v -1.1 0 1.3
v -1.1 0.1 1.3
v 0.8 0 1.3
v 0.8 0.1 1.3
v 0.9 0 1.3
v 0.9 0.1 1.3
v -1.3 0 1
v -1.3 0.1 1
v -1.2 0 1
v -1.2 0.1 1
v 0.9 0 1
v 0.9 0.1 1
v 1 0 1
v 1 0.1 1
v -1.3 0 -0.7
v -1.3 0.1 -0.7
v 1 0 -0.7
v 1 0.1 -0.7
v -0.2 0 2.3
v -0.0999999 0 2.3
v -0.3 0 2.2
v -0.2 0 2.2
v -0.0999999 0 2.2
v 0 0 2.2
v -0.4 0 2.1
v -0.3 0 2.1
v 0 0 2.1
v 0.2 0 2.1
v -0.6 0 2
v -0.4 0 2
v 0.2 0 2
v 0.3 0 2
v -0.7 0 1.9
v -0.6 0 1.9
v 0.3 0 1.9
v 0.4 0 1.9
v -0.9 0 1.8
v -0.7 0 1.8
v -0.6 0 1.8
v -0.4 0 1.8
v 0.4 0 1.8
v 0.6 0 1.8
v -0.5 0 1.7
v -0.4 0 1.7
v -1 0 1.6
v -0.9 0 1.6
v -0.6 0 1.6
v -0.5 0 1.6
v 0.3 0 1.6
v 0.4 0 1.6
v 0.6 0 1.6
v 0.7 0 1.6
v -1.1 0 1.5
v -1 0 1.5
v 0.7 0 1.5
v 0.8 0 1.5
v 0.3 0 1.4
v 0.4 0 1.4
v -1.2 0 1.3
v -1.1 0 1.3
v -0.9 0 1.3
v -0.8 0 1.3
v 0.5 0 1.3
v 0.6 0 1.3
v 0.8 0 1.3
v 0.9 0 1.3
v -0.9 0 1.1
v -0.8 0 1.1
v -0.7 0 1.1
v -0.5 0 1.1
v 0.2 0 1.1
v 0.4 0 1.1
v 0.5 0 1.1
v 0.6 0 1.1
v -1.3 0 1
v -1.2 0 1
v -0.8 0 1
v -0.7 0 1
v -0.5 0 1
v -0.4 0 1
v 0.1 0 1
v 0.2 0 1
v 0.4 0 1
v 0.5 0 1
v 0.9 0 1
v 1 0 1
v -1.3 0 0.9
v -1.2 0 0.9
v -0.7 0 0.9
v -0.4 0 0.9
v 0.1 0 0.9
v 0.4 0 0.9
v -1.3 0 0.8
v -1.2 0 0.8
v -0.4 0 0.8
v 0.1 0 0.8
v 0.9 0 0.8
v 1 0 0.8
v 0.9 0 0.7
v 1 0 0.7
v -0.9 0 0.5
v -0.3 0 0.5
v 0 0 0.5
v 0.6 0 0.5
v -1 0 0.4
v -0.9 0 0.4
v -0.8 0 0.4
v -0.4 0 0.4
v -0.3 0 0.4
v -0.2 0 0.4
v -0.0999999 0 0.4
v 0 0 0.4
v 0.1 0 0.4
v 0.5 0 0.4
v 0.6 0 0.4
v 0.7 0 0.4
v -0.9 0 0.3
v -0.8 0 0.3
v -0.4 0 0.3
v -0.3 0 0.3
v 0 0 0.3
v 0.1 0 0.3
v 0.5 0 0.3
v 0.6 0 0.3
v -1 0 0.2
v -0.9 0 0.2
v -0.8 0 0.2
v -0.4 0 0.2
v -0.3 0 0.2
v -0.2 0 0.2
v -0.0999999 0 0.2
v 0 0 0.2
v 0.1 0 0.2
v 0.5 0 0.2
v 0.6 0 0.2
v 0.7 0 0.2
v -0.7 0 0.1
v -0.6 0 0.1
v 0.2 0 0.1
v 0.3 0 0.1
v -1 0 0
v -0.9 0 0
v -0.8 0 0
v -0.7 0 0
v -0.6 0 0
v -0.4 0 0
v -0.3 0 0
v 0 0 0
v 0.1 0 0
v 0.2 0 0
v 0.3 0 0
v 0.5 0 0
v 0.6 0 0
v 0.7 0 0
v -1 0 -0.0999999
v -0.9 0 -0.0999999
v 0.6 0 -0.0999999
v 0.7 0 -0.0999999
v -0.9 0 -0.2
v -0.5 0 -0.2
v 0.2 0 -0.2
v 0.6 0 -0.2
v -0.5 0 -0.3
v -0.3 0 -0.3
v 0 0 -0.3
v 0.2 0 -0.3
v -1.2 0 -0.4
v -1.1 0 -0.4
v -1.1 0 -0.5
v -1 0 -0.5
v 0.7 0 -0.5
v 0.8 0 -0.5
v -1.2 0 -0.6
v -1 0 -0.6
v 0.7 0 -0.6
v 0.8 0 -0.6
v -1.3 0 -0.7
v 1 0 -0.7
v -0.2 0.1 2.3
v -0.0999999 0.1 2.3
v -0.3 0.1 2.2
v -0.2 0.1 2.2
v -0.0999999 0.1 2.2
v 0 0.1 2.2
v -0.4 0.1 2.1
v -0.3 0.1 2.1
v 0 0.1 2.1
v 0.2 0.1 2.1
v -0.6 0.1 2
v -0.4 0.1 2
v 0.2 0.1 2
v 0.3 0.1 2
v -0.7 0.1 1.9
v -0.6 0.1 1.9
v 0.3 0.1 1.9
v 0.4 0.1 1.9
v -0.9 0.1 1.8
v -0.7 0.1 1.8
v -0.6 0.1 1.8
v -0.4 0.1 1.8
v 0.4 0.1 1.8
v 0.6 0.1 1.8
v -0.5 0.1 1.7
v -0.4 0.1 1.7
v -1 0.1 1.6
v -0.9 0.1 1.6
v -0.6 0.1 1.6
v -0.5 0.1 1.6
v 0.3 0.1 1.6
v 0.4 0.1 1.6
v 0.6 0.1 1.6
v 0.7 0.1 1.6
v -1.1 0.1 1.5
v -1 0.1 1.5
v 0.7 0.1 1.5
v 0.8 0.1 1.5
v 0.3 0.1 1.4
v 0.4 0.1 1.4
v -1.2 0.1 1.3
v -1.1 0.1 1.3
v -0.9 0.1 1.3
v -0.8 0.1 1.3
v 0.5 0.1 1.3
v 0.6 0.1 1.3
v 0.8 0.1 1.3
v 0.9 0.1 1.3
v -0.9 0.1 1.1
v -0.8 0.1 1.1
v -0.7 0.1 1.1
v -0.5 0.1 1.1
v 0.2 0.1 1.1
v 0.4 0.1 1.1
v 0.5 0.1 1.1
v 0.6 0.1 1.1
v -1.3 0.1 1
v -1.2 0.1 1
v -0.8 0.1 1
v -0.7 0.1 1
v -0.5 0.1 1
v -0.4 0.1 1
v 0.1 0.1 1
v 0.2 0.1 1
v 0.4 0.1 1
v 0.5 0.1 1
v 0.9 0.1 1
v 1 0.1 1
v -1.3 0.1 0.9
v -1.2 0.1 0.9
v -0.7 0.1 0.9
v -0.4 0.1 0.9
v 0.1 0.1 0.9
v 0.4 0.1 0.9
v -1.3 0.1 0.8
v -1.2 0.1 0.8
v -0.4 0.1 0.8
v 0.1 0.1 0.8
v 0.9 0.1 0.8
v 1 0.1 0.8
v 0.9 0.1 0.7
v 1 0.1 0.7
v -0.9 0.1 0.5
v -0.3 0.1 0.5
v 0 0.1 0.5
v 0.6 0.1 0.5
v -1 0.1 0.4
v -0.9 0.1 0.4
v -0.8 0.1 0.4
v -0.4 0.1 0.4
v -0.3 0.1 0.4
v -0.2 0.1 0.4
v -0.0999999 0.1 0.4
v 0 0.1 0.4
v 0.1 0.1 0.4
v 0.5 0.1 0.4
v 0.6 0.1 0.4
v 0.7 0.1 0.4
v -0.9 0.1 0.3
v -0.8 0.1 0.3
v -0.4 0.1 0.3
v -0.3 0.1 0.3
v 0 0.1 0.3
v 0.1 0.1 0.3
v 0.5 0.1 0.3
v 0.6 0.1 0.3
v -1 0.1 0.2
v -0.9 0.1 0.2
v -0.8 0.1 0.2
v -0.4 0.1 0.2
v -0.3 0.1 0.2
v -0.2 0.1 0.2
v -0.0999999 0.1 0.2
v 0 0.1 0.2
v 0.1 0.1 0.2
v 0.5 0.1 0.2
v 0.6 0.1 0.2
v 0.7 0.1 0.2
v -0.7 0.1 0.1
v -0.6 0.1 0.1
v 0.2 0.1 0.1
v 0.3 0.1 0.1
v -1 0.1 0
v -0.9 0.1 0
v -0.8 0.1 0
v -0.7 0.1 0
v -0.6 0.1 0
v -0.4 0.1 0
v -0.3 0.1 0
v 0 0.1 0
v 0.1 0.1 0
v 0.2 0.1 0
v 0.3 0.1 0
v 0.5 0.1 0
v 0.6 0.1 0
v 0.7 0.1 0
v -1 0.1 -0.0999999
v -0.9 0.1 -0.0999999
v 0.6 0.1 -0.0999999
v 0.7 0.1 -0.0999999
v -0.9 0.1 -0.2
v -0.5 0.1 -0.2
v 0.2 0.1 -0.2
v 0.6 0.1 -0.2
v -0.5 0.1 -0.3
v -0.3 0.1 -0.3
v 0 0.1 -0.3
v 0.2 0.1 -0.3
v -1.2 0.1 -0.4
v -1.1 0.1 -0.4
v -1.1 0.1 -0.5
v -1 0.1 -0.5
v 0.7 0.1 -0.5
v 0.8 0.1 -0.5
v -1.2 0.1 -0.6
v -1 0.1 -0.6
v 0.7 0.1 -0.6
v 0.8 0.1 -0.6
v -1.3 0.1 -0.7
v 1 0.1 -0.7

# faces
f 5/2/1 2/2/1 1/2/1
f 6/3/1 3/3/1 2/3/1
f 6/2/1 2/2/1 5/2/1
f 7/2/1 4/2/1 3/2/1
f 7/3/1 3/3/1 6/3/1
f 8/2/1 4/2/1 7/2/1
f 11/2/1 10/2/1 9/2/1
f 12/2/1 10/2/1 11/2/1
f 15/2/1 14/2/1 13/2/1
f 16/2/1 14/2/1 15/2/1
f 19/2/1 18/2/1 17/2/1
f 20/2/1 18/2/1 19/2/1
f 23/2/1 22/2/1 21/2/1
f 24/2/1 22/2/1 23/2/1
f 27/2/1 26/2/1 25/2/1
f 28/2/1 26/2/1 27/2/1
f 31/2/1 30/2/1 29/2/1
f 32/2/1 30/2/1 31/2/1
f 35/2/1 34/2/1 33/2/1
f 36/2/1 34/2/1 35/2/1
f 39/2/1 38/2/1 37/2/1
f 40/2/1 38/2/1 39/2/1
f 43/2/1 42/2/1 41/2/1
f 44/2/1 42/2/1 43/2/1
f 45/2/2 46/2/2 47/2/2
f 47/2/2 46/2/2 48/2/2
f 49/2/2 50/2/2 51/2/2
f 51/2/2 50/2/2 52/2/2
f 53/2/2 54/2/2 55/2/2
f 55/2/2 54/2/2 56/2/2
f 57/2/2 58/2/2 59/2/2
f 59/2/2 58/2/2 60/2/2
f 61/2/2 62/2/2 63/2/2
f 63/2/2 62/2/2 64/2/2
f 65/2/2 66/2/2 67/2/2
f 67/2/2 66/2/2 68/2/2
f 69/2/2 70/2/2 71/2/2
f 71/2/2 70/2/2 72/2/2
f 73/2/2 74/2/2 75/2/2
f 75/2/2 74/2/2 76/2/2
f 77/2/2 78/2/2 79/2/2
f 79/2/2 78/2/2 80/2/2
f 81/2/2 82/2/2 85/2/2
f 82/3/2 83/3/2 86/3/2
f 85/2/2 82/2/2 86/2/2
f 83/2/2 84/2/2 87/2/2
f 86/3/2 83/3/2 87/3/2
f 87/2/2 84/2/2 88/2/2
f 91/2/3 90/2/3 89/2/3
f 92/2/3 90/2/3 91/2/3
f 95/2/3 94/2/3 93/2/3
f 96/2/3 94/2/3 95/2/3
f 99/2/3 98/2/3 97/2/3
f 100/2/3 98/2/3 99/2/3
f 103/2/3 102/2/3 101/2/3
f 104/2/3 102/2/3 103/2/3
f 107/2/3 106/2/3 105/2/3
f 108/2/3 106/2/3 107/2/3
f 111/2/3 110/2/3 109/2/3
f 112/2/3 110/2/3 111/2/3
f 115/2/3 114/2/3 113/2/3
f 116/2/3 114/2/3 115/2/3
f 119/2/3 118/2/3 117/2/3
f 120/2/3 118/2/3 119/2/3
f 123/2/3 122/2/3 121/2/3
f 124/2/3 122/2/3 123/2/3
f 127/2/3 126/2/3 125/2/3
f 128/2/3 126/2/3 127/2/3
f 131/2/3 130/2/3 129/2/3
f 132/2/3 130/2/3 131/2/3
f 135/2/3 134/2/3 133/2/3
f 136/2/3 134/2/3 135/2/3
f 139/2/3 138/2/3 137/2/3
f 140/2/3 138/2/3 139/2/3
f 143/2/3 142/2/3 141/2/3
f 144/2/3 142/2/3 143/2/3
f 147/2/3 146/2/3 145/2/3
f 148/2/3 146/2/3 147/2/3
f 151/2/3 150/2/3 149/2/3
f 152/2/3 150/2/3 151/2/3
f 155/2/3 154/2/3 153/2/3
f 156/2/3 154/2/3 155/2/3
f 159/2/3 158/2/3 157/2/3
f 160/2/3 158/2/3 159/2/3
f 163/2/3 162/2/3 161/2/3
f 164/2/3 162/2/3 163/2/3
f 165/2/4 166/2/4 167/2/4
f 167/2/4 166/2/4 168/2/4
f 172/2/5 170/2/5 169/2/5
f 173/2/5 170/2/5 172/2/5
f 176/2/5 172/2/5 171/2/5
f 176/2/5 174/2/5 173/2/5
f 176/2/5 173/2/5 172/2/5
f 177/2/5 174/2/5 176/2/5
f 180/2/5 176/2/5 175/2/5
f 180/2/5 178/2/5 177/2/5
f 180/2/5 177/2/5 176/2/5
f 181/2/5 178/2/5 180/2/5
f 184/2/5 180/2/5 179/2/5
f 184/2/5 182/2/5 181/2/5
f 184/2/5 181/2/5 180/2/5
f 185/2/5 182/2/5 184/2/5
f 188/2/5 184/2/5 183/2/5
f 188/2/5 186/2/5 185/2/5
f 188/2/5 185/2/5 184/2/5
f 189/2/5 186/2/5 188/2/5
f 190/2/5 186/2/5 189/2/5
f 191/2/5 186/2/5 190/2/5
f 193/3/5 190/3/5 189/3/5
f 194/2/5 192/2/5 191/2/5
f 194/3/5 190/3/5 193/3/5
f 194/2/5 191/2/5 190/2/5
f 196/2/5 188/2/5 187/2/5
f 196/2/5 189/2/5 188/2/5
f 197/3/5 193/3/5 189/3/5
f 197/2/5 189/2/5 196/2/5
f 198/2/5 194/2/5 193/2/5
f 198/3/5 193/3/5 197/3/5
f 199/2/5 192/2/5 194/2/5
f 199/2/5 194/2/5 198/2/5
f 200/2/5 192/2/5 199/2/5
f 201/2/5 192/2/5 200/2/5
f 204/2/5 198/2/5 197/2/5
f 204/2/5 197/2/5 196/2/5
f 204/2/5 196/2/5 195/2/5
f 204/2/5 199/2/5 198/2/5
f 205/2/5 202/2/5 201/2/5
f 205/2/5 201/2/5 200/2/5
f 207/2/5 204/2/5 203/2/5
f 207/2/5 199/2/5 204/2/5
f 207/3/5 200/3/5 199/3/5
f 208/2/5 206/2/5 205/2/5
f 208/3/5 200/3/5 207/3/5
f 208/2/5 205/2/5 200/2/5
f 210/2/5 207/2/5 203/2/5
f 210/2/5 208/2/5 207/2/5
f 211/2/5 208/2/5 210/2/5
f 212/2/5 208/2/5 211/2/5
f 213/2/5 206/2/5 208/2/5
f 213/2/5 208/2/5 212/2/5
f 214/2/5 206/2/5 213/2/5
f 215/2/5 206/2/5 214/2/5
f 217/4/5 212/4/5 211/4/5
f 217/2/5 210/2/5 209/2/5
f 217/2/5 211/2/5 210/2/5
f 218/2/5 213/2/5 212/2/5
f 218/4/5 212/4/5 217/4/5
f 219/2/5 213/2/5 218/2/5
f 220/2/5 213/2/5 219/2/5
f 221/2/5 213/2/5 220/2/5
f 222/2/5 213/2/5 221/2/5
f 223/4/5 214/4/5 213/4/5
f 223/2/5 213/2/5 222/2/5
f 224/2/5 216/2/5 215/2/5
f 224/4/5 214/4/5 223/4/5
f 224/2/5 215/2/5 214/2/5
f 226/2/5 217/2/5 209/2/5
f 226/2/5 218/2/5 217/2/5
f 227/4/5 219/4/5 218/4/5
f 227/2/5 218/2/5 226/2/5
f 228/2/5 220/2/5 219/2/5
f 228/4/5 219/4/5 227/4/5
f 229/3/5 221/3/5 220/3/5
f 229/2/5 220/2/5 228/2/5
f 230/3/5 221/3/5 229/3/5
f 231/3/5 221/3/5 230/3/5
f 232/2/5 222/2/5 221/2/5
f 232/3/5 221/3/5 231/3/5
f 233/4/5 223/4/5 222/4/5
f 233/2/5 222/2/5 232/2/5
f 234/2/5 224/2/5 223/2/5
f 234/4/5 223/4/5 233/4/5
f 235/2/5 216/2/5 224/2/5
f 235/2/5 224/2/5 234/2/5
f 237/2/5 228/2/5 227/2/5
f 237/2/5 226/2/5 225/2/5
f 237/2/5 227/2/5 226/2/5
f 238/2/5 228/2/5 237/2/5
f 239/4/5 230/4/5 229/4/5
f 239/2/5 228/2/5 238/2/5
f 239/4/5 229/4/5 228/4/5
f 240/3/5 231/3/5 230/3/5
f 240/4/5 230/4/5 239/4/5
f 241/4/5 232/4/5 231/4/5
f 241/3/5 231/3/5 240/3/5
f 241/4/5 233/4/5 232/4/5
f 242/2/5 236/2/5 235/2/5
f 242/4/5 233/4/5 241/4/5
f 242/2/5 234/2/5 233/2/5
f 242/2/5 235/2/5 234/2/5
f 243/3/5 238/3/5 237/3/5
f 244/2/5 240/2/5 239/2/5
f 244/3/5 238/3/5 243/3/5
f 244/2/5 239/2/5 238/2/5
f 245/4/5 241/4/5 240/4/5
f 245/2/5 240/2/5 244/2/5
f 246/2/5 242/2/5 241/2/5
f 246/4/5 241/4/5 245/4/5
f 247/2/5 236/2/5 242/2/5
f 247/2/5 242/2/5 246/2/5
f 248/2/5 236/2/5 247/2/5
f 249/2/5 244/2/5 243/2/5
f 249/2/5 245/2/5 244/2/5
f 249/3/5 248/3/5 247/3/5
f 249/2/5 247/2/5 246/2/5
f 249/2/5 246/2/5 245/2/5
f 250/3/5 248/3/5 249/3/5
f 251/2/5 249/2/5 243/2/5
f 251/2/5 250/2/5 249/2/5
f 252/2/5 250/2/5 251/2/5
f 253/2/5 250/2/5 252/2/5
f 254/2/5 250/2/5 253/2/5
f 255/2/5 251/2/5 243/2/5
f 256/3/5 252/3/5 251/3/5
f 256/2/5 251/2/5 255/2/5
f 257/3/5 252/3/5 256/3/5
f 258/3/5 252/3/5 257/3/5
f 259/2/5 253/2/5 252/2/5
f 259/3/5 252/3/5 258/3/5
f 260/2/5 253/2/5 259/2/5
f 261/2/5 253/2/5 260/2/5
f 262/3/5 254/3/5 253/3/5
f 262/2/5 253/2/5 261/2/5
f 263/3/5 254/3/5 262/3/5
f 264/3/5 254/3/5 263/3/5
f 265/2/5 250/2/5 254/2/5
f 265/3/5 254/3/5 264/3/5
f 266/2/5 250/2/5 265/2/5
f 267/3/5 256/3/5 255/3/5
f 267/3/5 257/3/5 256/3/5
f 268/1/5 258/1/5 257/1/5
f 268/3/5 257/3/5 267/3/5
f 269/3/5 259/3/5 258/3/5
f 269/1/5 258/1/5 268/1/5
f 269/3/5 260/3/5 259/3/5
f 270/3/5 260/3/5 269/3/5
f 271/3/5 262/3/5 261/3/5
f 271/3/5 263/3/5 262/3/5
f 272/1/5 264/1/5 263/1/5
f 272/3/5 263/3/5 271/3/5
f 273/3/5 266/3/5 265/3/5
f 273/1/5 264/1/5 272/1/5
f 273/3/5 265/3/5 264/3/5
f 274/3/5 266/3/5 273/3/5
f 275/2/5 255/2/5 243/2/5
f 275/3/5 267/3/5 255/3/5
f 276/1/5 268/1/5 267/1/5
f 276/3/5 267/3/5 275/3/5
f 276/1/5 269/1/5 268/1/5
f 276/1/5 270/1/5 269/1/5
f 277/1/5 270/1/5 276/1/5
f 278/1/5 270/1/5 277/1/5
f 279/3/5 260/3/5 270/3/5
f 279/1/5 270/1/5 278/1/5
f 280/2/5 261/2/5 260/2/5
f 280/3/5 260/3/5 279/3/5
f 281/3/5 271/3/5 261/3/5
f 281/2/5 261/2/5 280/2/5
f 282/1/5 274/1/5 273/1/5
f 282/3/5 271/3/5 281/3/5
f 282/1/5 272/1/5 271/1/5
f 282/1/5 273/1/5 272/1/5
f 283/1/5 274/1/5 282/1/5
f 284/1/5 274/1/5 283/1/5
f 285/3/5 266/3/5 274/3/5
f 285/1/5 274/1/5 284/1/5
f 286/2/5 250/2/5 266/2/5
f 286/3/5 266/3/5 285/3/5
f 287/4/5 278/4/5 277/4/5
f 288/4/5 278/4/5 287/4/5
f 289/4/5 284/4/5 283/4/5
f 290/4/5 284/4/5 289/4/5
f 291/2/5 275/2/5 243/2/5
f 291/2/5 276/2/5 275/2/5
f 292/1/5 277/1/5 276/1/5
f 292/2/5 276/2/5 291/2/5
f 293/4/5 287/4/5 277/4/5
f 293/1/5 277/1/5 292/1/5
f 294/1/5 288/1/5 287/1/5
f 294/4/5 287/4/5 293/4/5
f 295/4/5 278/4/5 288/4/5
f 295/1/5 288/1/5 294/1/5
f 296/1/5 279/1/5 278/1/5
f 296/4/5 278/4/5 295/4/5
f 297/2/5 280/2/5 279/2/5
f 297/1/5 279/1/5 296/1/5
f 297/2/5 281/2/5 280/2/5
f 297/2/5 282/2/5 281/2/5
f 298/1/5 283/1/5 282/1/5
f 298/2/5 282/2/5 297/2/5
f 299/4/5 289/4/5 283/4/5
f 299/1/5 283/1/5 298/1/5
f 300/1/5 290/1/5 289/1/5
f 300/4/5 289/4/5 299/4/5
f 301/4/5 284/4/5 290/4/5
f 301/1/5 290/1/5 300/1/5
f 302/1/5 285/1/5 284/1/5
f 302/4/5 284/4/5 301/4/5
f 303/2/5 286/2/5 285/2/5
f 303/1/5 285/1/5 302/1/5
f 304/2/5 250/2/5 286/2/5
f 304/2/5 286/2/5 303/2/5
f 305/3/5 296/3/5 295/3/5
f 305/3/5 294/3/5 293/3/5
f 305/3/5 295/3/5 294/3/5
f 305/3/5 292/3/5 291/3/5
f 305/2/5 291/2/5 243/2/5
f 305/3/5 297/3/5 296/3/5
f 305/3/5 293/3/5 292/3/5
f 306/3/5 297/3/5 305/3/5
f 307/3/5 304/3/5 303/3/5
f 307/3/5 302/3/5 301/3/5
f 307/3/5 301/3/5 300/3/5
f 307/3/5 303/3/5 302/3/5
f 307/3/5 299/3/5 298/3/5
f 307/3/5 300/3/5 299/3/5
f 308/2/5 250/2/5 304/2/5
f 308/3/5 304/3/5 307/3/5
f 309/3/5 297/3/5 306/3/5
f 309/2/5 306/2/5 305/2/5
f 310/3/5 297/3/5 309/3/5
f 311/3/5 307/3/5 298/3/5
f 312/2/5 308/2/5 307/2/5
f 312/3/5 307/3/5 311/3/5
f 313/3/5 297/3/5 310/3/5
f 313/2/5 310/2/5 309/2/5
f 314/2/5 298/2/5 297/2/5
f 314/3/5 297/3/5 313/3/5
f 315/3/5 311/3/5 298/3/5
f 315/2/5 298/2/5 314/2/5
f 316/2/5 312/2/5 311/2/5
f 316/3/5 311/3/5 315/3/5
f 317/2/5 313/2/5 309/2/5
f 317/2/5 314/2/5 313/2/5
f 317/2/5 316/2/5 315/2/5
f 317/2/5 315/2/5 314/2/5
f 317/2/5 309/2/5 305/2/5
f 317/2/5 305/2/5 243/2/5
f 318/2/5 316/2/5 317/2/5
f 319/3/5 318/3/5 317/3/5
f 319/2/5 316/2/5 318/2/5
f 320/2/5 316/2/5 319/2/5
f 321/2/5 308/2/5 312/2/5
f 321/2/5 316/2/5 320/2/5
f 321/2/5 250/2/5 308/2/5
f 321/2/5 312/2/5 316/2/5
f 322/2/5 250/2/5 321/2/5
f 323/3/5 320/3/5 319/3/5
f 323/3/5 319/3/5 317/3/5
f 323/2/5 317/2/5 243/2/5
f 324/2/5 321/2/5 320/2/5
f 324/3/5 320/3/5 323/3/5
f 325/3/5 322/3/5 321/3/5
f 325/2/5 321/2/5 324/2/5
f 326/2/5 250/2/5 322/2/5
f 326/3/5 322/3/5 325/3/5
f 327/2/5 325/2/5 324/2/5
f 327/2/5 324/2/5 323/2/5
f 327/2/5 326/2/5 325/2/5
f 327/2/5 323/2/5 243/2/5
f 328/2/5 250/2/5 326/2/5
f 328/2/5 326/2/5 327/2/5
f 329/2/6 330/2/6 332/2/6
f 332/2/6 330/2/6 333/2/6
f 331/2/6 332/2/6 336/2/6
f 333/2/6 334/2/6 336/2/6
f 332/2/6 333/2/6 336/2/6
f 336/2/6 334/2/6 337/2/6
f 335/2/6 336/2/6 340/2/6
f 337/2/6 338/2/6 340/2/6
f 336/2/6 337/2/6 340/2/6
f 340/2/6 338/2/6 341/2/6
f 339/2/6 340/2/6 344/2/6
f 341/2/6 342/2/6 344/2/6
f 340/2/6 341/2/6 344/2/6
f 344/2/6 342/2/6 345/2/6
f 343/2/6 344/2/6 348/2/6
f 345/2/6 346/2/6 348/2/6
f 344/2/6 345/2/6 348/2/6
f 348/2/6 346/2/6 349/2/6
f 349/2/6 346/2/6 350/2/6
f 350/2/6 346/2/6 351/2/6
f 349/3/6 350/3/6 353/3/6
f 351/2/6 352/2/6 354/2/6
f 353/3/6 350/3/6 354/3/6
f 350/2/6 351/2/6 354/2/6
f 347/2/6 348/2/6 356/2/6
f 348/2/6 349/2/6 356/2/6
f 349/3/6 353/3/6 357/3/6
f 356/2/6 349/2/6 357/2/6
f 353/2/6 354/2/6 358/2/6
f 357/3/6 353/3/6 358/3/6
f 354/2/6 352/2/6 359/2/6
f 358/2/6 354/2/6 359/2/6
f 359/2/6 352/2/6 360/2/6
f 360/2/6 352/2/6 361/2/6
f 357/2/6 358/2/6 364/2/6
f 356/2/6 357/2/6 364/2/6
f 355/2/6 356/2/6 364/2/6
f 358/2/6 359/2/6 364/2/6
f 361/2/6 362/2/6 365/2/6
f 360/2/6 361/2/6 365/2/6
f 363/2/6 364/2/6 367/2/6
f 364/2/6 359/2/6 367/2/6
f 359/3/6 360/3/6 367/3/6
f 365/2/6 366/2/6 368/2/6
f 367/3/6 360/3/6 368/3/6
f 360/2/6 365/2/6 368/2/6
f 363/2/6 367/2/6 370/2/6
f 367/2/6 368/2/6 370/2/6
f 370/2/6 368/2/6 371/2/6
f 371/2/6 368/2/6 372/2/6
f 368/2/6 366/2/6 373/2/6
f 372/2/6 368/2/6 373/2/6
f 373/2/6 366/2/6 374/2/6
f 374/2/6 366/2/6 375/2/6
f 371/4/6 372/4/6 377/4/6
f 369/2/6 370/2/6 377/2/6
f 370/2/6 371/2/6 377/2/6
f 372/2/6 373/2/6 378/2/6
f 377/4/6 372/4/6 378/4/6
f 378/2/6 373/2/6 379/2/6
f 379/2/6 373/2/6 380/2/6
f 380/2/6 373/2/6 381/2/6
f 381/2/6 373/2/6 382/2/6
f 373/4/6 374/4/6 383/4/6
f 382/2/6 373/2/6 383/2/6
f 375/2/6 376/2/6 384/2/6
f 383/4/6 374/4/6 384/4/6
f 374/2/6 375/2/6 384/2/6
f 369/2/6 377/2/6 386/2/6
f 377/2/6 378/2/6 386/2/6
f 378/4/6 379/4/6 387/4/6
f 386/2/6 378/2/6 387/2/6
f 379/2/6 380/2/6 388/2/6
f 387/4/6 379/4/6 388/4/6
f 380/3/6 381/3/6 389/3/6
f 388/2/6 380/2/6 389/2/6
f 389/3/6 381/3/6 390/3/6
f 390/3/6 381/3/6 391/3/6
f 381/2/6 382/2/6 392/2/6
f 391/3/6 381/3/6 392/3/6
f 382/4/6 383/4/6 393/4/6
f 392/2/6 382/2/6 393/2/6
f 383/2/6 384/2/6 394/2/6
f 393/4/6 383/4/6 394/4/6
f 384/2/6 376/2/6 395/2/6
f 394/2/6 384/2/6 395/2/6
f 387/2/6 388/2/6 397/2/6
f 385/2/6 386/2/6 397/2/6
f 386/2/6 387/2/6 397/2/6
f 397/2/6 388/2/6 398/2/6
f 389/4/6 390/4/6 399/4/6
f 398/2/6 388/2/6 399/2/6
f 388/4/6 389/4/6 399/4/6
f 390/3/6 391/3/6 400/3/6
f 399/4/6 390/4/6 400/4/6
f 391/4/6 392/4/6 401/4/6
f 400/3/6 391/3/6 401/3/6
f 392/4/6 393/4/6 401/4/6
f 395/2/6 396/2/6 402/2/6
f 401/4/6 393/4/6 402/4/6
f 393/2/6 394/2/6 402/2/6
f 394/2/6 395/2/6 402/2/6
f 397/3/6 398/3/6 403/3/6
f 399/2/6 400/2/6 404/2/6
f 403/3/6 398/3/6 404/3/6
f 398/2/6 399/2/6 404/2/6
f 400/4/6 401/4/6 405/4/6
f 404/2/6 400/2/6 405/2/6
f 401/2/6 402/2/6 406/2/6
f 405/4/6 401/4/6 406/4/6
f 402/2/6 396/2/6 407/2/6
f 406/2/6 402/2/6 407/2/6
f 407/2/6 396/2/6 408/2/6
f 403/2/6 404/2/6 409/2/6
f 404/2/6 405/2/6 409/2/6
f 407/3/6 408/3/6 409/3/6
f 406/2/6 407/2/6 409/2/6
f 405/2/6 406/2/6 409/2/6
f 409/3/6 408/3/6 410/3/6
f 403/2/6 409/2/6 411/2/6
f 409/2/6 410/2/6 411/2/6
f 411/2/6 410/2/6 412/2/6
f 412/2/6 410/2/6 413/2/6
f 413/2/6 410/2/6 414/2/6
f 403/2/6 411/2/6 415/2/6
f 411/3/6 412/3/6 416/3/6
f 415/2/6 411/2/6 416/2/6
f 416/3/6 412/3/6 417/3/6
f 417/3/6 412/3/6 418/3/6
f 412/2/6 413/2/6 419/2/6
f 418/3/6 412/3/6 419/3/6
f 419/2/6 413/2/6 420/2/6
f 420/2/6 413/2/6 421/2/6
f 413/3/6 414/3/6 422/3/6
f 421/2/6 413/2/6 422/2/6
f 422/3/6 414/3/6 423/3/6
f 423/3/6 414/3/6 424/3/6
f 414/2/6 410/2/6 425/2/6
f 424/3/6 414/3/6 425/3/6
f 425/2/6 410/2/6 426/2/6
f 415/3/6 416/3/6 427/3/6
f 416/3/6 417/3/6 427/3/6
f 417/1/6 418/1/6 428/1/6
f 427/3/6 417/3/6 428/3/6
f 418/3/6 419/3/6 429/3/6
f 428/1/6 418/1/6 429/1/6
f 419/3/6 420/3/6 429/3/6
f 429/3/6 420/3/6 430/3/6
f 421/3/6 422/3/6 431/3/6
f 422/3/6 423/3/6 431/3/6
f 423/1/6 424/1/6 432/1/6
f 431/3/6 423/3/6 432/3/6
f 425/3/6 426/3/6 433/3/6
f 432/1/6 424/1/6 433/1/6
f 424/3/6 425/3/6 433/3/6
f 433/3/6 426/3/6 434/3/6
f 403/2/6 415/2/6 435/2/6
f 415/3/6 427/3/6 435/3/6
f 427/1/6 428/1/6 436/1/6
f 435/3/6 427/3/6 436/3/6
f 428/1/6 429/1/6 436/1/6
f 429/1/6 430/1/6 436/1/6
f 436/1/6 430/1/6 437/1/6
f 437/1/6 430/1/6 438/1/6
f 430/3/6 420/3/6 439/3/6
f 438/1/6 430/1/6 439/1/6
f 420/2/6 421/2/6 440/2/6
f 439/3/6 420/3/6 440/3/6
f 421/3/6 431/3/6 441/3/6
f 440/2/6 421/2/6 441/2/6
f 433/1/6 434/1/6 442/1/6
f 441/3/6 431/3/6 442/3/6
f 431/1/6 432/1/6 442/1/6
f 432/1/6 433/1/6 442/1/6
f 442/1/6 434/1/6 443/1/6
f 443/1/6 434/1/6 444/1/6
f 434/3/6 426/3/6 445/3/6
f 444/1/6 434/1/6 445/1/6
f 426/2/6 410/2/6 446/2/6
f 445/3/6 426/3/6 446/3/6
f 437/4/6 438/4/6 447/4/6
f 447/4/6 438/4/6 448/4/6
f 443/4/6 444/4/6 449/4/6
f 449/4/6 444/4/6 450/4/6
f 403/2/6 435/2/6 451/2/6
f 435/2/6 436/2/6 451/2/6
f 436/1/6 437/1/6 452/1/6
f 451/2/6 436/2/6 452/2/6
f 437/4/6 447/4/6 453/4/6
f 452/1/6 437/1/6 453/1/6
f 447/1/6 448/1/6 454/1/6
f 453/4/6 447/4/6 454/4/6
f 448/4/6 438/4/6 455/4/6
f 454/1/6 448/1/6 455/1/6
f 438/1/6 439/1/6 456/1/6
f 455/4/6 438/4/6 456/4/6
f 439/2/6 440/2/6 457/2/6
f 456/1/6 439/1/6 457/1/6
f 440/2/6 441/2/6 457/2/6
f 441/2/6 442/2/6 457/2/6
f 442/1/6 443/1/6 458/1/6
f 457/2/6 442/2/6 458/2/6
f 443/4/6 449/4/6 459/4/6
f 458/1/6 443/1/6 459/1/6
f 449/1/6 450/1/6 460/1/6
f 459/4/6 449/4/6 460/4/6
f 450/4/6 444/4/6 461/4/6
f 460/1/6 450/1/6 461/1/6
f 444/1/6 445/1/6 462/1/6
f 461/4/6 444/4/6 462/4/6
f 445/2/6 446/2/6 463/2/6
f 462/1/6 445/1/6 463/1/6
f 446/2/6 410/2/6 464/2/6
f 463/2/6 446/2/6 464/2/6
f 455/3/6 456/3/6 465/3/6
f 453/3/6 454/3/6 465/3/6
f 454/3/6 455/3/6 465/3/6
f 451/3/6 452/3/6 465/3/6
f 403/2/6 451/2/6 465/2/6
f 456/3/6 457/3/6 465/3/6
f 452/3/6 453/3/6 465/3/6
f 465/3/6 457/3/6 466/3/6
f 463/3/6 464/3/6 467/3/6
f 461/3/6 462/3/6 467/3/6
f 460/3/6 461/3/6 467/3/6
f 462/3/6 463/3/6 467/3/6
f 458/3/6 459/3/6 467/3/6
f 459/3/6 460/3/6 467/3/6
f 464/2/6 410/2/6 468/2/6
f 467/3/6 464/3/6 468/3/6
f 466/3/6 457/3/6 469/3/6
f 465/2/6 466/2/6 469/2/6
f 469/3/6 457/3/6 470/3/6
f 458/3/6 467/3/6 471/3/6
f 467/2/6 468/2/6 472/2/6
f 471/3/6 467/3/6 472/3/6
f 470/3/6 457/3/6 473/3/6
f 469/2/6 470/2/6 473/2/6
f 457/2/6 458/2/6 474/2/6
f 473/3/6 457/3/6 474/3/6
f 458/3/6 471/3/6 475/3/6
f 474/2/6 458/2/6 475/2/6
f 471/2/6 472/2/6 476/2/6
f 475/3/6 471/3/6 476/3/6
f 469/2/6 473/2/6 477/2/6
f 473/2/6 474/2/6 477/2/6
f 475/2/6 476/2/6 477/2/6
f 474/2/6 475/2/6 477/2/6
f 465/2/6 469/2/6 477/2/6
f 403/2/6 465/2/6 477/2/6
f 477/2/6 476/2/6 478/2/6
f 477/3/6 478/3/6 479/3/6
f 478/2/6 476/2/6 479/2/6
f 479/2/6 476/2/6 480/2/6
f 472/2/6 468/2/6 481/2/6
f 480/2/6 476/2/6 481/2/6
f 468/2/6 410/2/6 481/2/6
f 476/2/6 472/2/6 481/2/6
f 481/2/6 410/2/6 482/2/6
f 479/3/6 480/3/6 483/3/6
f 477/3/6 479/3/6 483/3/6
f 403/2/6 477/2/6 483/2/6
f 480/2/6 481/2/6 484/2/6
f 483/3/6 480/3/6 484/3/6
f 481/3/6 482/3/6 485/3/6
f 484/2/6 481/2/6 485/2/6
f 482/2/6 410/2/6 486/2/6
f 485/3/6 482/3/6 486/3/6
f 484/2/6 485/2/6 487/2/6
f 483/2/6 484/2/6 487/2/6
f 485/2/6 486/2/6 487/2/6
f 403/2/6 483/2/6 487/2/6
f 486/2/6 410/2/6 488/2/6
f 487/2/6 486/2/6 488/2/6
